<svg width="31" height="24" viewBox="0 0 31 24" fill="none" xmlns="http://www.w3.org/2000/svg">
<g clip-path="url(#clip0_137_381)">
<path d="M29.9394 3.28388C29.5944 1.99388 28.5774 0.976883 27.2874 0.631883C24.9474 0.00488313 15.5664 0.00488281 15.5664 0.00488281C15.5664 0.00488281 6.18541 0.00488313 3.84541 0.631883C2.55541 0.976883 1.53841 1.99388 1.19341 3.28388C0.566406 5.62388 0.566406 12.0049 0.566406 12.0049C0.566406 12.0049 0.566406 18.3859 1.19341 20.7259C1.53841 22.0159 2.55541 23.0329 3.84541 23.3779C6.18541 24.0049 15.5664 24.0049 15.5664 24.0049C15.5664 24.0049 24.9474 24.0049 27.2874 23.3779C28.5789 23.0329 29.5944 22.0159 29.9394 20.7259C30.5664 18.3859 30.5664 12.0049 30.5664 12.0049C30.5664 12.0049 30.5664 5.62388 29.9394 3.28388ZM12.5664 17.2009V6.80888L21.5664 12.0049L12.5664 17.2009Z" fill="black"/>
</g>
<defs>
<clipPath id="clip0_137_381">
<rect width="30" height="24" fill="white" transform="translate(0.566406 0.00488281)"/>
</clipPath>
</defs>
</svg>
