<svg width="25" height="24" viewBox="0 0 25 24" fill="none" xmlns="http://www.w3.org/2000/svg">
<g clip-path="url(#clip0_137_378)">
<path d="M21.3475 0.00488281H2.68083C1.20749 0.00488281 0.0141602 1.19822 0.0141602 2.67155V21.3382C0.0141602 22.8116 1.20749 24.0049 2.68083 24.0049H12.8422V14.7235H9.71816V11.0902H12.8422V8.41688C12.8422 5.31822 14.7368 3.62888 17.5022 3.62888C18.4342 3.62622 19.3648 3.67422 20.2915 3.76888V7.00888H18.3875C16.8808 7.00888 16.5875 7.72088 16.5875 8.77155V11.0849H20.1875L19.7195 14.7182H16.5662V24.0049H21.3475C22.8208 24.0049 24.0142 22.8116 24.0142 21.3382V2.67155C24.0142 1.19822 22.8208 0.00488281 21.3475 0.00488281Z" fill="black"/>
</g>
<defs>
<clipPath id="clip0_137_378">
<rect width="24" height="24" fill="white" transform="translate(0.0141602 0.00488281)"/>
</clipPath>
</defs>
</svg>
