<svg width="25" height="24" viewBox="0 0 25 24" fill="none" xmlns="http://www.w3.org/2000/svg">
<g clip-path="url(#clip0_137_382)">
<path d="M4.8999 0.00488281C2.70661 0.00488281 0.899902 1.81159 0.899902 4.00488V20.0049C0.899902 22.1982 2.70661 24.0049 4.8999 24.0049H20.8999C23.0932 24.0049 24.8999 22.1982 24.8999 20.0049V4.00488C24.8999 1.81159 23.0932 0.00488281 20.8999 0.00488281H4.8999ZM12.8999 5.33822H15.5666C15.5666 6.67822 17.5279 8.00488 18.2332 8.00488V10.6715C17.4266 10.6715 16.4572 10.3171 15.5666 9.71842V14.6715C15.5666 16.8769 13.7719 18.6716 11.5666 18.6716C9.36124 18.6716 7.56657 16.8769 7.56657 14.6715C7.56657 12.4662 9.36124 10.6715 11.5666 10.6715V13.3382C10.8306 13.3382 10.2332 13.9369 10.2332 14.6715C10.2332 15.4062 10.8306 16.0049 11.5666 16.0049C12.3026 16.0049 12.8999 15.4062 12.8999 14.6715V5.33822Z" fill="black"/>
</g>
<defs>
<clipPath id="clip0_137_382">
<rect width="24" height="24" fill="white" transform="translate(0.899902 0.00488281)"/>
</clipPath>
</defs>
</svg>
