<svg width="25" height="24" viewBox="0 0 25 24" fill="none" xmlns="http://www.w3.org/2000/svg">
<g clip-path="url(#clip0_137_379)">
<path d="M7.01432 0.00488281C3.33299 0.00488281 0.347656 2.99022 0.347656 6.67155V17.3382C0.347656 21.0195 3.33299 24.0049 7.01432 24.0049H17.681C21.3623 24.0049 24.3477 21.0195 24.3477 17.3382V6.67155C24.3477 2.99022 21.3623 0.00488281 17.681 0.00488281H7.01432ZM20.3477 2.67155C21.0837 2.67155 21.681 3.26888 21.681 4.00488C21.681 4.74088 21.0837 5.33822 20.3477 5.33822C19.6117 5.33822 19.0143 4.74088 19.0143 4.00488C19.0143 3.26888 19.6117 2.67155 20.3477 2.67155ZM12.3477 5.33822C16.029 5.33822 19.0143 8.32355 19.0143 12.0049C19.0143 15.6862 16.029 18.6716 12.3477 18.6716C8.66632 18.6716 5.68099 15.6862 5.68099 12.0049C5.68099 8.32355 8.66632 5.33822 12.3477 5.33822ZM12.3477 8.00488C11.2868 8.00488 10.2694 8.42631 9.51923 9.17646C8.76908 9.9266 8.34766 10.944 8.34766 12.0049C8.34766 13.0657 8.76908 14.0832 9.51923 14.8333C10.2694 15.5835 11.2868 16.0049 12.3477 16.0049C13.4085 16.0049 14.4259 15.5835 15.1761 14.8333C15.9262 14.0832 16.3477 13.0657 16.3477 12.0049C16.3477 10.944 15.9262 9.9266 15.1761 9.17646C14.4259 8.42631 13.4085 8.00488 12.3477 8.00488Z" fill="black"/>
</g>
<defs>
<clipPath id="clip0_137_379">
<rect width="24" height="24" fill="white" transform="translate(0.347656 0.00488281)"/>
</clipPath>
</defs>
</svg>
