<svg width="197" height="37" viewBox="0 0 197 37" fill="none" xmlns="http://www.w3.org/2000/svg">
<g clip-path="url(#clip0_72_2659)">
<g clip-path="url(#clip1_72_2659)">
<path d="M51.2807 34.8272V29.1244H49.2554V28.4102H54.116V29.1244H52.0801V34.8272H51.2807Z" fill="#194857"/>
<path d="M53.8271 32.5035C53.8271 31.1604 54.7119 30.0732 56.1296 30.0732C57.5473 30.0732 58.432 31.1604 58.432 32.5035C58.432 33.8466 57.5473 34.9445 56.1296 34.9445C54.7119 34.9445 53.8271 33.8466 53.8271 32.5035ZM57.6645 32.5035C57.6645 31.5655 57.1209 30.7127 56.1296 30.7127C55.1383 30.7127 54.584 31.5548 54.584 32.5035C54.584 33.4522 55.1383 34.3049 56.1296 34.3049C57.1209 34.3049 57.6645 33.4628 57.6645 32.5035Z" fill="#194857"/>
<path d="M60.0098 35.4775C60.3936 35.9358 60.8519 36.1064 61.5235 36.1064C62.291 36.1064 63.0158 35.7333 63.0158 34.71V34.0491C62.6747 34.5181 62.1097 34.8805 61.4595 34.8805C60.2443 34.8805 59.3916 33.9745 59.3916 32.4822C59.3916 30.9899 60.2337 30.0732 61.4595 30.0732C62.0884 30.0732 62.6427 30.3823 63.0158 30.8939V30.1904H63.7406V34.6993C63.7406 36.2343 62.664 36.7139 61.5341 36.7139C60.7453 36.7139 60.2124 36.5647 59.6581 36.0211L60.0205 35.4881L60.0098 35.4775ZM63.0051 31.4589C62.76 31.0538 62.195 30.7127 61.6194 30.7127C60.6814 30.7127 60.1271 31.4482 60.1271 32.4822C60.1271 33.5161 60.6814 34.2516 61.6194 34.2516C62.195 34.2516 62.7493 33.8999 63.0051 33.4948V31.4695V31.4589Z" fill="#194857"/>
<path d="M67.2478 30.0732C68.6549 30.0732 69.4756 31.1711 69.4756 32.5674V32.7487H65.7129C65.7662 33.6227 66.3844 34.3582 67.3864 34.3582C67.9194 34.3582 68.4523 34.145 68.8147 33.772L69.1665 34.241C68.7082 34.6993 68.0793 34.9551 67.3224 34.9551C65.9474 34.9551 64.9561 33.9638 64.9561 32.5141C64.9561 31.1711 65.9154 30.0838 67.2478 30.0838V30.0732ZM65.7129 32.2157H68.7615C68.7615 31.5228 68.2924 30.6701 67.2372 30.6701C66.2458 30.6701 65.7555 31.5015 65.7235 32.2157H65.7129Z" fill="#194857"/>
<path d="M70.8393 33.8572V30.8193H70.0718V30.1904H70.8393V28.9219H71.5641V30.1904H72.5021V30.8193H71.5641V33.708C71.5641 34.0491 71.7133 34.3049 72.0331 34.3049C72.2356 34.3049 72.4275 34.2196 72.5234 34.113L72.7366 34.6567C72.5554 34.8272 72.2889 34.9551 71.8732 34.9551C71.191 34.9551 70.8499 34.5607 70.8499 33.8679L70.8393 33.8572Z" fill="#194857"/>
<path d="M76.7129 34.8272V31.768C76.7129 30.9472 76.2865 30.7127 75.6683 30.7127C75.114 30.7127 74.5703 31.0538 74.2932 31.4375V34.8272H73.5684V28.4209H74.2932V30.8619C74.6236 30.4782 75.2525 30.0731 75.9561 30.0731C76.9261 30.0731 77.4377 30.5421 77.4377 31.5548V34.8379H76.7129V34.8272Z" fill="#194857"/>
<path d="M80.9558 30.0732C82.3629 30.0732 83.1836 31.1711 83.1836 32.5674V32.7487H79.4209C79.4742 33.6227 80.0924 34.3582 81.0944 34.3582C81.6274 34.3582 82.1603 34.145 82.5227 33.772L82.8745 34.241C82.4162 34.6993 81.7873 34.9551 81.0304 34.9551C79.6554 34.9551 78.6641 33.9638 78.6641 32.5141C78.6641 31.1711 79.6234 30.0838 80.9558 30.0838V30.0732ZM79.4209 32.2157H82.4695C82.4695 31.5228 82.0004 30.6701 80.9452 30.6701C79.9538 30.6701 79.4635 31.5015 79.4315 32.2157H79.4209Z" fill="#194857"/>
<path d="M84.3984 34.8272V30.1797H85.1233V30.9259C85.4964 30.4355 86.04 30.0838 86.6689 30.0838V30.8299C86.5836 30.8086 86.4983 30.7979 86.3811 30.7979C85.9334 30.7979 85.3365 31.1604 85.1233 31.5334V34.8165H84.3984V34.8272Z" fill="#194857"/>
<path d="M95.1007 34.8272L93.683 29.6574L92.2653 34.8272H91.4019L89.5791 28.4209H90.4638L91.8815 33.7613L93.3525 28.4209H94.0134L95.4844 33.7613L96.9021 28.4209H97.7868L95.9641 34.8272H95.1007Z" fill="#194857"/>
<path d="M100.345 30.0732C101.753 30.0732 102.573 31.1711 102.573 32.5674V32.7487H98.8105C98.8638 33.6227 99.4821 34.3582 100.484 34.3582C101.017 34.3582 101.55 34.145 101.912 33.772L102.264 34.241C101.806 34.6993 101.177 34.9551 100.42 34.9551C99.045 34.9551 98.0537 33.9638 98.0537 32.5141C98.0537 31.1711 99.0131 30.0838 100.345 30.0838V30.0732ZM98.8105 32.2157H101.859C101.859 31.5228 101.39 30.6701 100.335 30.6701C99.3435 30.6701 98.8532 31.5015 98.8212 32.2157H98.8105Z" fill="#194857"/>
<path d="M106.443 33.3136C106.869 33.7826 107.562 34.2303 108.457 34.2303C109.598 34.2303 109.971 33.612 109.971 33.1217C109.971 32.3542 109.193 32.141 108.351 31.9065C107.327 31.6401 106.176 31.3523 106.176 30.0944C106.176 29.0392 107.114 28.3143 108.383 28.3143C109.363 28.3143 110.12 28.6448 110.664 29.2097L110.184 29.796C109.704 29.263 109.033 29.0285 108.329 29.0285C107.562 29.0285 107.008 29.4442 107.008 30.0518C107.008 30.6914 107.743 30.8832 108.564 31.1071C109.608 31.3842 110.802 31.7147 110.802 33.0578C110.802 33.9958 110.163 34.9445 108.436 34.9445C107.317 34.9445 106.507 34.5181 105.974 33.9212L106.443 33.3136Z" fill="#194857"/>
<path d="M111.996 33.8572V30.8193H111.229V30.1904H111.996V28.9219H112.721V30.1904H113.659V30.8193H112.721V33.708C112.721 34.0491 112.871 34.3049 113.19 34.3049C113.393 34.3049 113.585 34.2196 113.681 34.113L113.894 34.6567C113.713 34.8272 113.446 34.9551 113.03 34.9551C112.348 34.9551 112.007 34.5607 112.007 33.8679L111.996 33.8572Z" fill="#194857"/>
<path d="M117.634 34.8272V34.2942C117.25 34.7206 116.717 34.9338 116.099 34.9338C115.31 34.9338 114.479 34.4008 114.479 33.3988C114.479 32.3968 115.321 31.8745 116.099 31.8745C116.728 31.8745 117.261 32.0771 117.634 32.5141V31.672C117.634 31.0431 117.133 30.6913 116.462 30.6913C115.907 30.6913 115.449 30.8939 115.044 31.3309L114.703 30.8299C115.204 30.3076 115.801 30.0624 116.558 30.0624C117.538 30.0624 118.359 30.5101 118.359 31.6294V34.8165H117.634V34.8272ZM117.634 32.9724C117.357 32.5887 116.867 32.3968 116.355 32.3968C115.684 32.3968 115.214 32.8232 115.214 33.4201C115.214 34.0171 115.684 34.4328 116.355 34.4328C116.867 34.4328 117.357 34.2409 117.634 33.8572V32.9831V32.9724Z" fill="#194857"/>
<path d="M122.985 34.8272V31.7893C122.985 30.9685 122.57 30.7127 121.951 30.7127C121.387 30.7127 120.843 31.0538 120.576 31.4375V34.8272H119.852V30.1797H120.576V30.8512C120.907 30.4675 121.536 30.0624 122.229 30.0624C123.199 30.0624 123.71 30.5528 123.71 31.5654V34.8272H122.985Z" fill="#194857"/>
<path d="M128.571 34.8272V34.1343C128.22 34.6034 127.655 34.9445 127.004 34.9445C125.789 34.9445 124.937 34.0171 124.937 32.5141C124.937 31.0112 125.779 30.0731 127.004 30.0731C127.633 30.0731 128.198 30.3823 128.571 30.8939V28.4209H129.296V34.8272H128.571ZM128.571 31.4588C128.316 31.0538 127.751 30.7127 127.175 30.7127C126.237 30.7127 125.683 31.4802 125.683 32.5141C125.683 33.5481 126.237 34.3049 127.175 34.3049C127.751 34.3049 128.305 33.9745 128.571 33.5694V31.4695V31.4588Z" fill="#194857"/>
<path d="M49.2554 8.78635V1.07962H51.5898V8.78635H49.2554Z" fill="#194857"/>
<path d="M58.0056 8.78635L55.1596 4.65051V8.78635H52.8252V1.07962H55.2236L57.8991 4.95963V1.07962H60.2335V8.78635H57.995H58.0056Z" fill="#194857"/>
<path d="M68.2707 0.95166C70.0615 0.95166 71.1275 1.85771 71.6498 2.84903L69.6884 3.85101C69.4326 3.382 68.921 3.00892 68.2707 3.00892C67.1515 3.00892 66.4054 3.86167 66.4054 4.93826C66.4054 6.01486 67.1515 6.86761 68.2707 6.86761C68.7717 6.86761 69.2301 6.7397 69.5286 6.52651V6.19607H68.0362V4.27738H71.7883V7.3686C70.9356 8.31728 69.7737 8.92487 68.2707 8.92487C65.9363 8.92487 64.0283 7.40058 64.0283 4.93826C64.0283 2.47595 65.9363 0.95166 68.2707 0.95166Z" fill="#194857"/>
<path d="M76.6279 0.95166C79.005 0.95166 80.8384 2.57188 80.8384 4.93826C80.8384 7.30464 79.005 8.92487 76.6279 8.92487C74.2509 8.92487 72.4175 7.30464 72.4175 4.93826C72.4175 2.57188 74.2509 0.95166 76.6279 0.95166ZM76.6279 3.00892C75.5087 3.00892 74.7839 3.86167 74.7839 4.93826C74.7839 6.01486 75.5087 6.86761 76.6279 6.86761C77.7472 6.86761 78.472 6.01486 78.472 4.93826C78.472 3.86167 77.7472 3.00892 76.6279 3.00892Z" fill="#194857"/>
<path d="M81.6802 8.78635V1.07962H85.1232C87.5535 1.07962 89.3443 2.46534 89.3443 4.92765C89.3443 7.38997 87.5428 8.78635 85.1338 8.78635H81.6802ZM84.0146 6.75041H85.1232C86.285 6.75041 86.9779 5.89766 86.9779 4.92765C86.9779 3.88303 86.381 3.11556 85.1338 3.11556H84.0146V6.75041Z" fill="#194857"/>
<path d="M99.0133 8.78635L98.022 4.42666L97.0307 8.78635H94.579L92.3726 1.07962H94.9841L95.9754 5.79106L97.1373 1.07962H98.8961L100.058 5.79106L101.039 1.07962H103.661L101.454 8.78635H99.0027H99.0133Z" fill="#194857"/>
<path d="M104.151 8.78635V1.07962H109.993V3.01963H106.486V3.92567H109.918V5.86568H106.486V6.84634H109.993V8.78635H104.151Z" fill="#194857"/>
<path d="M115.63 8.78635V3.11556H113.562V1.07962H120.022V3.11556H117.964V8.78635H115.63Z" fill="#194857"/>
<path d="M125.097 8.78635L124.031 6.31337H123.189V8.78635H120.854V1.07962H124.969C126.77 1.07962 127.74 2.28413 127.74 3.72314C127.74 5.05557 126.962 5.75908 126.355 6.05755L127.751 8.78635H125.097ZM124.607 3.01963H123.189V4.37337H124.607C125.001 4.37337 125.363 4.11754 125.363 3.69117C125.363 3.26479 124.99 3.01963 124.607 3.01963Z" fill="#194857"/>
<path d="M128.688 1.07962H131.055V5.53524C131.055 6.27073 131.439 6.86766 132.398 6.86766C133.357 6.86766 133.73 6.28139 133.73 5.53524V1.07962H136.097V5.60985C136.097 7.52854 134.999 8.92492 132.398 8.92492C129.797 8.92492 128.688 7.52854 128.688 5.62051V1.07962Z" fill="#194857"/>
<path d="M137.962 5.96159C138.537 6.51587 139.401 6.95291 140.445 6.95291C140.882 6.95291 141.298 6.80368 141.298 6.50521C141.298 6.20675 140.978 6.05752 140.211 5.91895C138.942 5.68444 137.002 5.38598 137.002 3.45663C137.002 2.15619 138.09 0.962341 140.2 0.962341C141.458 0.962341 142.588 1.3141 143.473 2.03894L142.225 3.69114C141.554 3.17949 140.691 2.92367 140.072 2.92367C139.497 2.92367 139.369 3.13685 139.369 3.32872C139.369 3.62718 139.678 3.73378 140.499 3.87235C141.767 4.0962 143.654 4.45861 143.654 6.23873C143.654 8.01884 142.396 8.91423 140.328 8.91423C138.687 8.91423 137.567 8.4239 136.747 7.6884L137.962 5.96159Z" fill="#194857"/>
<path d="M146.073 8.78638V3.11559H144.005V1.07965H150.465V3.11559H148.408V8.78638H146.073Z" fill="#194857"/>
<path d="M49.2554 22.6435V14.9367H52.6983C55.1287 14.9367 56.9195 16.3225 56.9195 18.7848C56.9195 21.2471 55.118 22.6435 52.709 22.6435H49.2554ZM51.5898 20.6075H52.6983C53.8602 20.6075 54.5531 19.7548 54.5531 18.7848C54.5531 17.7402 53.9562 16.9727 52.709 16.9727H51.5898V20.6075Z" fill="#194857"/>
<path d="M57.7612 22.6435V14.9367H63.6026V16.8767H60.0956V17.7828H63.5279V19.7228H60.0956V20.7035H63.6026V22.6435H57.7612Z" fill="#194857"/>
<path d="M66.6507 22.6435L63.8047 14.9367H66.4482L68.1111 20.1278L69.7739 14.9367H72.4175L69.5714 22.6435H66.6401H66.6507Z" fill="#194857"/>
<path d="M72.8442 22.6435V14.9367H78.6856V16.8767H75.1786V17.7828H78.611V19.7228H75.1786V20.7035H78.6856V22.6435H72.8442Z" fill="#194857"/>
<path d="M79.7295 22.6435V14.9367H82.0639V20.6075H84.9846V22.6435H79.7295Z" fill="#194857"/>
<path d="M89.4932 14.8089C91.8702 14.8089 93.7036 16.4291 93.7036 18.7955C93.7036 21.1619 91.8702 22.7821 89.4932 22.7821C87.1161 22.7821 85.2827 21.1619 85.2827 18.7955C85.2827 16.4291 87.1161 14.8089 89.4932 14.8089ZM89.4932 16.8662C88.3739 16.8662 87.6491 17.7189 87.6491 18.7955C87.6491 19.8721 88.3739 20.7248 89.4932 20.7248C90.6124 20.7248 91.3372 19.8721 91.3372 18.7955C91.3372 17.7189 90.6124 16.8662 89.4932 16.8662Z" fill="#194857"/>
<path d="M94.5361 22.6435V14.9367H98.6507C100.452 14.9367 101.422 16.1412 101.422 17.5803C101.422 19.0193 100.452 20.1705 98.6507 20.1705H96.8705V22.6435H94.5361ZM98.3522 16.8767H96.8705V18.2305H98.3522C98.7466 18.2305 99.0557 17.964 99.0557 17.5589C99.0557 17.1539 98.7466 16.8767 98.3522 16.8767Z" fill="#194857"/>
<path d="M109 22.6435V17.7828L107.284 22.6435H106.25L104.534 17.7828V22.6435H102.2V14.9367H105.419L106.773 18.8594L108.126 14.9367H111.345V22.6435H109.011H109Z" fill="#194857"/>
<path d="M112.583 22.6435V14.9367H118.424V16.8767H114.917V17.7828H118.349V19.7228H114.917V20.7035H118.424V22.6435H112.583Z" fill="#194857"/>
<path d="M124.637 22.6435L121.791 18.5076V22.6435H119.457V14.9367H121.855L124.531 18.8167V14.9367H126.865V22.6435H124.627H124.637Z" fill="#194857"/>
<path d="M129.786 22.6435V16.9727H127.718V14.9367H134.177V16.9727H132.12V22.6435H129.786Z" fill="#194857"/>
<path d="M137.952 22.6435V14.9367H140.286V22.6435H137.952Z" fill="#194857"/>
<path d="M146.703 22.6435L143.857 18.5076V22.6435H141.522V14.9367H143.921L146.596 18.8167V14.9367H148.931V22.6435H146.692H146.703Z" fill="#194857"/>
<path d="M150.199 22.6435V14.9368H152.534V22.6435H150.199Z" fill="#194857"/>
<path d="M155.433 22.6435V16.9727H153.365V14.9368H159.824V16.9727H157.767V22.6435H155.433Z" fill="#194857"/>
<path d="M160.655 22.6435V14.9368H162.99V22.6435H160.655Z" fill="#194857"/>
<path d="M169.493 22.6435L169.194 21.6522H166.242L165.943 22.6435H163.417L166.263 14.9368H169.194L172.04 22.6435H169.514H169.493ZM167.713 16.994L166.839 19.7122H168.597L167.723 16.994H167.713Z" fill="#194857"/>
<path d="M173.394 22.6435V16.9727H171.326V14.9368H177.786V16.9727H175.728V22.6435H173.394Z" fill="#194857"/>
<path d="M178.617 22.6435V14.9368H180.952V22.6435H178.617Z" fill="#194857"/>
<path d="M184.202 22.6435L181.356 14.9368H184L185.663 20.1279L187.326 14.9368H189.969L187.123 22.6435H184.192H184.202Z" fill="#194857"/>
<path d="M190.396 22.6435V14.9368H196.237V16.8768H192.73V17.7828H196.163V19.7228H192.73V20.7035H196.237V22.6435H190.396Z" fill="#194857"/>
<path d="M4.18681 13.8176L0.26416 10.3427L1.31944 9.1488L5.24209 12.6238L4.18681 13.8176Z" fill="black"/>
<path d="M6.36122 4.9596C7.39517 4.32003 8.3332 4.44795 8.99408 4.83168L8.2266 6.12147C7.90682 5.94026 7.48045 5.90828 7.10737 6.14279C6.45715 6.54784 6.3399 7.30466 6.72363 7.93356C7.10737 8.56246 7.85353 8.77565 8.49309 8.37059C8.78089 8.18938 9.00474 7.95488 9.10067 7.72037L8.98342 7.5285L8.12001 8.06147L7.42715 6.9529L9.591 5.59916L10.6996 7.38993C10.5503 8.24268 10.1027 9.01016 9.22859 9.55378C7.88551 10.3959 6.2333 10.1933 5.34858 8.77565C4.46385 7.34729 5.01813 5.79103 6.36122 4.94894V4.9596Z" fill="black"/>
<path d="M17.2339 6.71843L16.1467 3.87238L15.9015 6.9103L14.2493 7.1448L12.0215 2.17754L13.7803 1.92171L14.9102 4.99161L15.2406 1.70852L16.4238 1.53797L17.671 4.59721L17.8735 1.33545L19.6429 1.07962L18.9074 6.47326L17.2552 6.70777L17.2339 6.71843Z" fill="black"/>
<path d="M23.3315 6.98491L24.2482 3.24347L22.8838 2.91303L23.2142 1.56995L27.478 2.61456L27.1475 3.95765L25.7938 3.6272L24.8771 7.3793L23.3315 6.99557V6.98491Z" fill="black"/>
<path d="M28.2349 8.53046L31.1449 4.17078L33.0955 5.47122C34.4706 6.38792 34.9609 7.85892 34.0336 9.24464C33.1062 10.641 31.5499 10.7476 30.1855 9.8309L28.2349 8.5198V8.53046ZM30.3241 8.26397L30.953 8.67969C31.6139 9.11672 32.3281 8.90354 32.7011 8.34925C33.0955 7.76298 33.0422 7.09144 32.3387 6.62243L31.6992 6.19606L30.3241 8.25331V8.26397Z" fill="black"/>
<path d="M34.0225 13.1247L38.0624 9.7883L39.075 11.0141L35.0351 14.3505L34.0225 13.1247Z" fill="black"/>
<path d="M17.9583 24.7647C17.905 24.6368 17.8091 24.5622 17.6705 24.5515C17.5213 24.5408 17.404 24.6048 17.3294 24.7327C17.2868 24.818 17.2441 24.9033 17.2015 24.9885C17.2015 24.9885 17.1908 24.9885 17.1802 24.9885C17.2441 24.8713 17.2654 24.754 17.2335 24.6261C17.2015 24.4769 17.0949 24.3596 16.935 24.3383C16.7858 24.317 16.6472 24.3916 16.5726 24.5302C16.5299 24.6155 16.498 24.7007 16.4553 24.786C16.3914 24.9033 16.3914 25.0205 16.4233 25.1484C16.466 25.3296 16.6259 25.4469 16.8071 25.4149C16.8817 25.4043 16.9563 25.351 17.0309 25.319C17.0309 25.3296 17.0309 25.351 17.0309 25.3723C16.999 25.5748 17.0949 25.7773 17.2761 25.8306C17.4573 25.8946 17.6279 25.8093 17.7345 25.6068C17.8091 25.4469 17.8943 25.2977 17.969 25.1378C18.0329 25.0099 18.0223 24.8819 17.969 24.7647H17.9583Z" fill="black"/>
<path d="M19.2271 25.0205C19.0779 24.9885 18.9287 25.0418 18.854 25.1804C18.7474 25.3723 18.6515 25.5641 18.5556 25.7667C18.4703 25.9479 18.5662 26.193 18.7368 26.2783C18.918 26.3636 19.1205 26.2783 19.2271 26.0864C19.3017 25.9265 19.3977 25.7773 19.4616 25.6174C19.4936 25.5321 19.5043 25.4362 19.5256 25.3509H19.5043C19.4723 25.1804 19.3764 25.0738 19.2271 25.0418V25.0205Z" fill="black"/>
<path d="M18.7477 25.1164C18.7157 24.9352 18.6197 24.8286 18.4705 24.786C18.3319 24.754 18.172 24.8073 18.0974 24.9352C17.9802 25.1377 17.8736 25.3403 17.7883 25.5535C17.703 25.7347 17.8096 25.9798 17.9802 26.0544C18.1614 26.1397 18.3533 26.0544 18.4599 25.8626C18.5451 25.7027 18.6197 25.5535 18.6944 25.3936C18.737 25.3083 18.7583 25.2124 18.737 25.1271L18.7477 25.1164Z" fill="black"/>
<path d="M31.24 14.9155C30.7496 9.74568 23.5759 9.31931 20.3141 12.4105C14.9844 5.58853 2.01197 11.5151 8.88727 23.7414C2.92868 11.5578 15.7626 6.87831 19.4933 14.1054C19.9943 15.0221 20.7725 14.4571 21.2841 13.8815C26.5605 9.87359 34.1926 15.1393 22.9363 20.0746C22.9043 20.0853 22.883 20.1066 22.851 20.1172C22.5846 20.2452 21.7744 20.5969 21.7531 20.6076C21.4547 20.7035 21.1562 20.7675 20.8364 20.7568C20.5273 20.7355 20.2182 20.7035 19.9091 20.6609C19.6745 20.6289 19.44 20.6289 19.2162 20.7142C18.8751 20.8421 18.6086 21.0872 18.3848 21.3537C18.1076 21.6842 17.8731 22.0573 17.6279 22.4197C17.4681 22.6542 17.6066 22.9953 17.8944 23.0379C18.1076 23.0699 18.3101 23.0379 18.4594 22.8567C18.6299 22.6435 18.8111 22.441 18.9923 22.2385C19.1522 22.0679 19.3228 21.9187 19.4827 21.7588C19.5573 21.6842 19.6532 21.6842 19.7385 21.7588C19.7598 21.7801 19.7918 21.7908 19.8131 21.8014C20.7192 22.3451 21.6252 22.8993 22.5206 23.443C22.5739 23.4749 22.6059 23.4749 22.6592 23.443C22.9257 23.2724 23.1921 22.878 24.5885 22.0786C27.2427 20.6609 31.208 18.092 31.24 14.9261V14.9155Z" fill="black"/>
<path d="M31.8369 15.7895C31.8582 17.8788 31.3892 19.9787 30.5258 21.876C29.3106 24.3277 27.2214 26.2144 25.0789 27.8559C24.8977 28.0158 24.322 28.3782 24.1195 28.5168C22.8084 29.3802 21.4867 30.2223 20.1223 30.9898C19.1629 31.5121 18.2569 32.0877 17.3828 32.7699C17.2336 32.8871 17.0843 33.0151 16.9351 33.143C16.7113 32.7806 16.4661 32.4288 16.2103 32.077C15.8052 31.5441 15.3788 31.0324 14.9311 30.5421C14.1104 29.6787 13.2363 28.9325 12.5434 28.0265C12.0105 27.2803 11.3176 25.852 11.7014 24.9459C12.213 23.8587 14.2383 23.5815 15.3788 23.5709C15.688 23.6455 15.8692 24.4662 16.1783 24.5409C16.1996 24.4982 16.2209 24.4556 16.2316 24.413C16.4554 23.9226 16.9991 23.816 17.3935 24.1891C17.4148 24.2104 17.4468 24.2211 17.4681 24.2104C17.7346 24.1571 17.9584 24.2211 18.1503 24.413C18.1716 24.4343 18.2142 24.4449 18.2355 24.4449C18.502 24.3916 18.7259 24.4662 18.9071 24.6475C18.9284 24.6581 18.9604 24.6794 18.9817 24.6688C19.4081 24.5622 19.7918 24.8606 19.8451 25.2337C19.8451 25.2657 19.8771 25.2977 19.9091 25.319C20.1116 25.4469 20.3141 25.5748 20.5273 25.6814C20.6232 25.7347 20.7298 25.756 20.8364 25.7667C20.9857 25.788 21.1029 25.7027 21.1349 25.5748C21.1775 25.4469 21.1349 25.3297 20.9857 25.255C20.6126 25.0312 20.2288 24.818 19.8558 24.5942C19.6426 24.4769 19.4294 24.349 19.2269 24.2317C19.1629 24.1891 19.1203 24.1358 19.1309 24.0505C19.1309 23.9759 19.1736 23.912 19.2482 23.9013C19.3121 23.9013 19.3761 23.9013 19.4294 23.9333C19.8664 24.1784 20.3035 24.4343 20.7405 24.6901C21.039 24.8606 21.3268 25.0312 21.6252 25.2017C21.7958 25.2977 22.0196 25.2337 22.0942 25.0738C22.1795 24.9139 22.1156 24.7434 21.9343 24.6368C21.3907 24.3277 20.8471 24.0079 20.3035 23.6988C20.1329 23.6028 19.9517 23.4962 19.7812 23.4003C19.7172 23.3577 19.6852 23.3044 19.6959 23.2298C19.6959 23.1551 19.7492 23.0912 19.8131 23.0912C19.8771 23.0912 19.941 23.0912 19.9943 23.1338C20.5167 23.4323 21.0283 23.7307 21.5506 24.0292C21.7638 24.1571 21.977 24.285 22.1902 24.4023C22.382 24.5089 22.6272 24.4023 22.6805 24.2104C22.7231 24.0612 22.6592 23.9226 22.4993 23.8267C21.5826 23.2617 20.6659 22.7074 19.7385 22.1425C19.6213 22.0679 19.6106 22.0679 19.5253 22.1638C19.2588 22.4516 18.9924 22.7501 18.7365 23.0486C18.5127 23.3044 18.2355 23.3897 17.9158 23.379C17.6173 23.3683 17.4041 23.2084 17.2869 22.942C17.159 22.6755 17.1909 22.409 17.3721 22.1638C17.6706 21.7481 17.9691 21.3431 18.2569 20.938C18.2569 20.938 18.2462 20.938 18.2249 20.938C17.6386 20.938 15.9544 20.938 15.2509 21.0552C13.1297 21.2258 10.4542 21.94 9.63344 24.1784C9.07915 25.756 9.77201 27.4189 10.6248 28.73C11.3922 29.8492 12.5434 30.7233 13.5028 31.5974C14.2596 32.3009 14.9738 33.079 15.5707 33.9104C15.7626 34.1876 15.9331 34.4541 16.0397 34.7206C16.093 34.8805 16.1889 35.0084 16.3382 35.1043C16.6793 35.3175 17.1376 35.2216 17.3508 34.8805C17.8518 34.1343 18.7152 33.4734 19.4614 32.9085C20.3035 32.2902 21.2202 31.7679 22.0729 31.1603C23.1922 30.3929 24.3007 29.5827 25.3667 28.7513C25.5159 28.6341 25.7611 28.4102 25.9103 28.2823C28.2873 26.1717 30.6004 23.6775 31.3572 20.5116C31.7623 18.9767 31.9435 17.3671 31.8156 15.7895H31.8369Z" fill="#ED2024"/>
<path d="M19.8144 25.6921C19.7505 25.8306 19.6865 25.9586 19.6226 26.0865C19.7185 26.1504 19.8144 26.2144 19.9104 26.2677C19.9956 26.321 20.0916 26.2997 20.1449 26.225C20.2088 26.1398 20.2301 25.9586 20.1768 25.9053C20.1768 25.9053 20.1768 25.9053 20.1662 25.9053C20.0489 25.8413 19.9423 25.7667 19.8251 25.7027L19.8144 25.6921Z" fill="#ED2024"/>
</g>
</g>
<defs>
<clipPath id="clip0_72_2659">
<rect width="195.973" height="35.7622" fill="white" transform="translate(0.263672 0.951691)"/>
</clipPath>
<clipPath id="clip1_72_2659">
<rect width="195.973" height="35.7622" fill="white" transform="translate(0.263672 0.951691)"/>
</clipPath>
</defs>
</svg>
