<svg width="537" height="538" viewBox="0 0 537 538" fill="none" xmlns="http://www.w3.org/2000/svg">
<g clip-path="url(#clip0_1300_4982)">
<path d="M498.884 30.6834L497.269 26.2383L492.824 27.8533L494.439 32.2984L498.884 30.6834ZM498.281 30.403L494.724 31.696L493.431 28.1389L496.988 26.8458L498.281 30.403Z" fill="#F4A800"/>
<path d="M500.099 83.1752L497.835 76.9541L491.613 79.2182L493.878 85.4393L500.099 83.1752ZM499.247 82.7805L494.267 84.5928L492.455 79.6129L497.435 77.8005L499.247 82.7805Z" fill="#F4A800"/>
<path d="M501.31 135.672L498.396 127.675L490.399 130.588L493.313 138.585L501.31 135.672ZM500.219 135.163L493.821 137.495L491.49 131.097L497.887 128.765L500.219 135.163Z" fill="#F4A800"/>
<path d="M502.525 188.168L498.968 178.39L489.19 181.947L492.747 191.725L502.525 188.168ZM501.19 187.545L493.37 190.39L490.524 182.57L498.345 179.724L501.19 187.545Z" fill="#F4A800"/>
<path d="M503.735 240.662L499.529 229.107L487.974 233.314L492.181 244.868L503.735 240.662ZM502.161 239.924L492.918 243.289L489.553 234.046L498.796 230.681L502.161 239.924Z" fill="#F4A800"/>
<path d="M504.949 293.156L500.099 279.826L486.769 284.676L491.619 298.006L504.949 293.156ZM503.127 292.305L492.461 296.189L488.576 285.523L499.242 281.638L503.127 292.305Z" fill="#F4A800"/>
<path d="M506.159 345.649L500.66 330.538L485.549 336.037L491.048 351.149L506.159 345.649ZM504.098 344.689L492.009 349.087L487.61 336.998L499.699 332.6L504.098 344.689Z" fill="#F4A800"/>
<path d="M507.375 398.142L501.226 381.255L484.339 387.403L490.487 404.29L507.375 398.142ZM505.069 397.072L491.557 401.99L486.639 388.478L500.151 383.561L505.069 397.072Z" fill="#F4A800"/>
<path d="M508.584 450.636L501.792 431.973L483.129 438.765L489.921 457.428L508.584 450.636ZM506.039 449.452L491.105 454.889L485.668 439.954L500.603 434.517L506.039 449.452Z" fill="#F4A800"/>
<path d="M509.794 503.131L502.353 482.687L481.909 490.128L489.35 510.572L509.794 503.131ZM507.011 501.833L490.659 507.784L484.708 491.431L501.06 485.48L507.011 501.833Z" fill="#F4A800"/>
<path d="M446.696 30.5634L445.221 26.5078L441.165 27.9826L442.64 32.0382L446.696 30.5634ZM446.14 30.3038L442.895 31.4878L441.711 28.2422L444.956 27.0583L446.14 30.3038Z" fill="#F4A800"/>
<path d="M447.802 83.0082L445.735 77.3271L440.054 79.3939L442.121 85.0749L447.802 83.0082ZM447.023 82.6498L442.479 84.3064L440.823 79.7626L445.366 78.1061L447.023 82.6498Z" fill="#F4A800"/>
<path d="M448.909 135.454L446.25 128.147L438.944 130.806L441.602 138.113L448.909 135.454ZM447.912 134.986L442.07 137.116L439.941 131.274L445.783 129.144L447.912 134.986Z" fill="#F4A800"/>
<path d="M450.014 187.897L446.763 178.971L437.837 182.221L441.088 191.148L450.014 187.897ZM448.799 187.331L441.659 189.933L439.057 182.793L446.197 180.191L448.799 187.331Z" fill="#F4A800"/>
<path d="M451.121 240.344L447.283 229.792L436.731 233.63L440.569 244.181L451.121 240.344ZM449.682 239.674L441.244 242.748L438.17 234.31L446.608 231.236L449.682 239.674Z" fill="#F4A800"/>
<path d="M452.226 292.786L447.797 280.614L435.624 285.044L440.054 297.216L452.226 292.786ZM450.57 292.013L440.833 295.559L437.286 285.823L447.023 282.276L450.57 292.013Z" fill="#F4A800"/>
<path d="M453.338 345.23L448.316 331.433L434.519 336.454L439.54 350.252L453.338 345.23ZM451.453 344.352L440.418 348.372L436.399 337.337L447.434 333.318L451.453 344.352Z" fill="#F4A800"/>
<path d="M454.443 397.679L448.83 382.262L433.412 387.875L439.026 403.293L454.443 397.679ZM452.34 396.698L440.007 401.19L435.515 388.857L447.848 384.365L452.34 396.698Z" fill="#F4A800"/>
<path d="M455.55 450.12L449.344 433.077L432.301 439.283L438.507 456.326L455.55 450.12ZM453.223 449.035L439.587 453.999L434.623 440.368L448.259 435.404L453.223 449.035Z" fill="#F4A800"/>
<path d="M456.656 502.563L449.863 483.899L431.2 490.692L437.993 509.355L456.656 502.563ZM454.111 501.379L439.177 506.816L433.74 491.881L448.674 486.444L454.111 501.379Z" fill="#F4A800"/>
<path d="M394.502 30.4399L393.168 26.7686L389.497 28.1031L390.831 31.7745L394.502 30.4399ZM393.999 30.2062L391.06 31.276L389.99 28.3368L392.929 27.2671L393.999 30.2062Z" fill="#F4A800"/>
<path d="M395.505 82.8363L393.635 77.6953L388.495 79.5647L390.364 84.7057L395.505 82.8363ZM394.804 82.5091L390.691 84.0047L389.196 79.8919L393.308 78.3964L394.804 82.5091Z" fill="#F4A800"/>
<path d="M396.501 135.23L394.097 128.619L387.487 131.023L389.891 137.634L396.501 135.23ZM395.603 134.809L390.317 136.736L388.39 131.449L393.677 129.523L395.603 134.809Z" fill="#F4A800"/>
<path d="M397.504 187.628L394.565 179.553L386.49 182.492L389.429 190.567L397.504 187.628ZM396.403 187.114L389.943 189.466L387.591 183.006L394.051 180.654L396.403 187.114Z" fill="#F4A800"/>
<path d="M398.506 240.023L395.032 230.479L385.487 233.953L388.961 243.497L398.506 240.023ZM397.202 239.415L389.564 242.194L386.786 234.555L394.424 231.777L397.202 239.415Z" fill="#F4A800"/>
<path d="M399.508 292.422L395.499 281.408L384.485 285.417L388.494 296.431L399.508 292.422ZM398.008 291.721L389.195 294.925L385.986 286.113L394.798 282.909L398.008 291.721Z" fill="#F4A800"/>
<path d="M400.51 344.815L395.966 332.331L383.483 336.875L388.027 349.358L400.51 344.815ZM398.807 344.02L388.821 347.655L385.186 337.669L395.172 334.034L398.807 344.02Z" fill="#F4A800"/>
<path d="M401.512 397.211L396.434 383.258L382.48 388.336L387.559 402.29L401.512 397.211ZM399.606 396.323L388.447 400.384L384.386 389.224L395.546 385.164L399.606 396.323Z" fill="#F4A800"/>
<path d="M402.515 449.608L396.901 434.19L381.484 439.804L387.097 455.222L402.515 449.608ZM400.412 448.627L388.078 453.118L383.587 440.785L395.92 436.294L400.412 448.627Z" fill="#F4A800"/>
<path d="M403.517 501.997L397.369 485.109L380.482 491.258L386.63 508.145L403.517 501.997ZM401.211 500.927L387.7 505.845L382.782 492.333L396.294 487.415L401.211 500.927Z" fill="#F4A800"/>
<path d="M342.309 30.3144L341.115 27.0273L337.828 28.2217L339.022 31.5088L342.309 30.3144ZM341.863 30.1067L339.235 31.0622L338.279 28.4346L340.907 27.4791L341.863 30.1067Z" fill="#F4A800"/>
<path d="M343.207 82.6673L341.535 78.0664L336.934 79.7385L338.606 84.3394L343.207 82.6673ZM342.579 82.3713L338.902 83.7111L337.562 80.0345L341.239 78.6947L342.579 82.3713Z" fill="#F4A800"/>
<path d="M344.101 135.009L341.951 129.095L336.037 131.245L338.186 137.159L344.101 135.009ZM343.296 134.636L338.565 136.36L336.841 131.629L341.572 129.905L343.296 134.636Z" fill="#F4A800"/>
<path d="M344.999 187.355L342.366 180.127L335.137 182.755L337.77 189.983L344.999 187.355ZM344.012 186.893L338.232 188.996L336.129 183.217L341.909 181.114L344.012 186.893Z" fill="#F4A800"/>
<path d="M345.892 239.701L342.781 231.159L334.239 234.27L337.349 242.812L345.892 239.701ZM344.728 239.161L337.895 241.649L335.407 234.815L342.241 232.328L344.728 239.161Z" fill="#F4A800"/>
<path d="M346.791 292.053L343.202 282.197L333.346 285.786L336.934 295.642L346.791 292.053ZM345.446 291.425L337.563 294.297L334.691 286.414L342.574 283.542L345.446 291.425Z" fill="#F4A800"/>
<path d="M347.683 344.396L343.617 333.227L332.447 337.293L336.513 348.462L347.683 344.396ZM346.162 343.685L337.225 346.936L333.974 337.999L342.911 334.748L346.162 343.685Z" fill="#F4A800"/>
<path d="M348.582 396.744L344.038 384.261L331.555 388.805L336.098 401.288L348.582 396.744ZM346.879 395.95L336.893 399.585L333.258 389.599L343.244 385.964L346.879 395.95Z" fill="#F4A800"/>
<path d="M349.48 449.088L344.458 435.291L330.661 440.313L335.683 454.11L349.48 449.088ZM347.595 448.211L336.56 452.23L332.541 441.195L343.576 437.176L347.595 448.211Z" fill="#F4A800"/>
<path d="M350.374 501.44L344.874 486.329L329.763 491.828L335.262 506.94L350.374 501.44ZM348.312 500.48L336.223 504.878L331.825 492.789L343.914 488.391L348.312 500.48Z" fill="#F4A800"/>
<path d="M290.116 30.1935L289.062 27.2959L286.164 28.3501L287.218 31.2477L290.116 30.1935ZM289.721 30.0066L287.405 30.8478L286.564 28.5318L288.88 27.6906L289.721 30.0066Z" fill="#F4A800"/>
<path d="M290.91 82.4922L289.435 78.4365L285.379 79.9113L286.854 83.9669L290.91 82.4922ZM290.354 82.2325L287.108 83.4165L285.925 80.1709L289.17 78.987L290.354 82.2325Z" fill="#F4A800"/>
<path d="M291.699 134.79L289.799 129.571L284.58 131.472L286.48 136.691L291.699 134.79ZM290.988 134.458L286.813 135.979L285.291 131.804L289.466 130.283L290.988 134.458Z" fill="#F4A800"/>
<path d="M292.488 187.089L290.167 180.712L283.79 183.033L286.111 189.41L292.488 187.089ZM291.621 186.684L286.522 188.543L284.663 183.443L289.762 181.584L291.621 186.684Z" fill="#F4A800"/>
<path d="M293.278 239.386L290.536 231.852L283.001 234.593L285.743 242.128L293.278 239.386ZM292.25 238.903L286.221 241.1L284.024 235.071L290.053 232.875L292.25 238.903Z" fill="#F4A800"/>
<path d="M294.072 291.684L290.909 282.986L282.211 286.149L285.374 294.847L294.072 291.684ZM292.883 291.129L285.924 293.663L283.39 286.704L290.348 284.17L292.883 291.129Z" fill="#F4A800"/>
<path d="M294.861 343.98L291.273 334.124L281.417 337.712L285.005 347.568L294.861 343.98ZM293.516 343.352L285.634 346.223L282.762 338.341L290.645 335.469L293.516 343.352Z" fill="#F4A800"/>
<path d="M295.651 396.28L291.642 385.266L280.628 389.275L284.637 400.289L295.651 396.28ZM294.15 395.579L285.338 398.788L282.134 389.976L290.946 386.766L294.15 395.579Z" fill="#F4A800"/>
<path d="M296.44 448.576L292.011 436.404L279.839 440.834L284.268 453.006L296.44 448.576ZM294.784 447.803L285.047 451.349L281.501 441.613L291.237 438.066L294.784 447.803Z" fill="#F4A800"/>
<path d="M297.235 500.871L292.385 487.541L279.055 492.391L283.905 505.721L297.235 500.871ZM295.412 500.02L284.746 503.904L280.862 493.238L291.528 489.353L295.412 500.02Z" fill="#F4A800"/>
<path d="M237.922 30.07L237.008 27.5566L234.495 28.4706L235.409 30.9839L237.922 30.07ZM237.579 29.909L235.57 30.6412L234.837 28.6316L236.847 27.8994L237.579 29.909Z" fill="#F4A800"/>
<path d="M238.607 82.3173L237.329 78.8018L233.814 80.0792L235.091 83.5948L238.607 82.3173ZM238.129 82.0888L235.315 83.1118L234.292 80.2973L237.106 79.2743L238.129 82.0888Z" fill="#F4A800"/>
<path d="M239.293 134.567L237.647 130.044L233.124 131.69L234.77 136.213L239.293 134.567ZM238.68 134.281L235.066 135.6L233.747 131.981L237.361 130.662L238.68 134.281Z" fill="#F4A800"/>
<path d="M239.979 186.821L237.969 181.296L232.444 183.306L234.453 188.831L239.979 186.821ZM239.226 186.468L234.806 188.078L233.197 183.659L237.616 182.049L239.226 186.468Z" fill="#F4A800"/>
<path d="M240.663 239.062L238.285 232.529L231.752 234.908L234.13 241.44L240.663 239.062ZM239.775 238.646L234.551 240.547L232.65 235.323L237.874 233.422L239.775 238.646Z" fill="#F4A800"/>
<path d="M241.349 291.314L238.607 283.779L231.072 286.521L233.814 294.056L241.349 291.314ZM240.321 290.831L234.292 293.028L232.095 286.999L238.124 284.802L240.321 290.831Z" fill="#F4A800"/>
<path d="M242.035 343.558L238.924 335.016L230.382 338.126L233.492 346.668L242.035 343.558ZM240.871 343.018L234.038 345.505L231.55 338.671L238.384 336.184L240.871 343.018Z" fill="#F4A800"/>
<path d="M242.72 395.81L239.246 386.266L229.702 389.74L233.176 399.284L242.72 395.81ZM241.422 395.203L233.783 397.981L231.005 390.342L238.644 387.564L241.422 395.203Z" fill="#F4A800"/>
<path d="M243.405 448.057L239.568 437.505L229.016 441.342L232.853 451.894L243.405 448.057ZM241.967 447.387L233.528 450.461L230.454 442.023L238.893 438.948L241.967 447.387Z" fill="#F4A800"/>
<path d="M244.091 500.307L239.885 488.753L228.33 492.959L232.537 504.513L244.091 500.307ZM242.517 499.57L233.274 502.935L229.909 493.691L239.152 490.326L242.517 499.57Z" fill="#F4A800"/>
<path d="M185.733 29.9442L184.96 27.8203L182.836 28.594L183.609 30.7179L185.733 29.9442ZM185.443 29.8092L183.745 30.4271L183.127 28.7291L184.825 28.1111L185.443 29.8092Z" fill="#F4A800"/>
<path d="M186.31 82.1435L185.225 79.168L182.249 80.2533L183.335 83.2288L186.31 82.1435ZM185.905 81.9565L183.527 82.8237L182.659 80.4454L185.038 79.5782L185.905 81.9565Z" fill="#F4A800"/>
<path d="M186.892 134.345L185.5 130.518L181.673 131.909L183.064 135.736L186.892 134.345ZM186.372 134.106L183.314 135.217L182.197 132.159L185.256 131.047L186.372 134.106Z" fill="#F4A800"/>
<path d="M187.473 186.545L185.769 181.871L181.096 183.574L182.799 188.248L187.473 186.545ZM186.834 186.243L183.095 187.604L181.735 183.865L185.473 182.505L186.834 186.243Z" fill="#F4A800"/>
<path d="M188.049 238.745L186.039 233.22L180.514 235.229L182.524 240.755L188.049 238.745ZM187.296 238.392L182.877 240.002L181.267 235.582L185.686 233.973L187.296 238.392Z" fill="#F4A800"/>
<path d="M188.631 290.947L186.31 284.57L179.933 286.892L182.254 293.268L188.631 290.947ZM187.764 290.542L182.664 292.401L180.805 287.302L185.905 285.443L187.764 290.542Z" fill="#F4A800"/>
<path d="M189.212 343.143L186.58 335.914L179.351 338.547L181.984 345.775L189.212 343.143ZM188.226 342.68L182.446 344.783L180.343 339.004L186.123 336.901L188.226 342.68Z" fill="#F4A800"/>
<path d="M189.789 395.341L186.85 387.266L178.775 390.205L181.714 398.28L189.789 395.341ZM188.688 394.826L182.228 397.179L179.876 390.719L186.336 388.367L188.688 394.826Z" fill="#F4A800"/>
<path d="M190.371 447.544L187.12 438.617L178.193 441.868L181.444 450.794L190.371 447.544ZM189.155 446.978L182.015 449.574L179.419 442.434L186.559 439.837L189.155 446.978Z" fill="#F4A800"/>
<path d="M190.953 499.738L187.396 489.96L177.617 493.517L181.174 503.295L190.953 499.738ZM189.618 499.115L181.798 501.961L178.952 494.14L186.772 491.295L189.618 499.115Z" fill="#F4A800"/>
<path d="M133.54 29.8255L132.907 28.0859L131.167 28.7195L131.8 30.4591L133.54 29.8255ZM133.301 29.7113L131.909 30.215L131.401 28.8233L132.792 28.3196L133.301 29.7113Z" fill="#F4A800"/>
<path d="M134.012 81.9726L133.124 79.5371L130.689 80.4251L131.577 82.8606L134.012 81.9726ZM133.68 81.8168L131.733 82.5282L131.021 80.5809L132.968 79.8695L133.68 81.8168Z" fill="#F4A800"/>
<path d="M134.49 134.124L133.353 130.993L130.222 132.13L131.359 135.262L134.49 134.124ZM134.064 133.927L131.561 134.841L130.647 132.338L133.15 131.424L134.064 133.927Z" fill="#F4A800"/>
<path d="M134.963 186.273L133.572 182.446L129.745 183.838L131.136 187.665L134.963 186.273ZM134.444 186.035L131.386 187.146L130.269 184.087L133.328 182.976L134.444 186.035Z" fill="#F4A800"/>
<path d="M135.436 238.425L133.789 233.902L129.266 235.548L130.913 240.071L135.436 238.425ZM134.823 238.14L131.209 239.459L129.89 235.844L133.504 234.525L134.823 238.14Z" fill="#F4A800"/>
<path d="M135.913 290.575L134.013 285.356L128.794 287.257L130.694 292.476L135.913 290.575ZM135.202 290.243L131.027 291.764L129.505 287.589L133.68 286.068L135.202 290.243Z" fill="#F4A800"/>
<path d="M136.385 342.721L134.235 336.807L128.32 338.956L130.47 344.871L136.385 342.721ZM135.58 342.347L130.849 344.071L129.125 339.341L133.856 337.617L135.58 342.347Z" fill="#F4A800"/>
<path d="M136.858 394.876L134.454 388.266L127.843 390.67L130.247 397.28L136.858 394.876ZM135.96 394.456L130.673 396.382L128.747 391.096L134.033 389.169L135.96 394.456Z" fill="#F4A800"/>
<path d="M137.336 447.023L134.677 439.717L127.371 442.376L130.03 449.682L137.336 447.023ZM136.339 446.561L130.497 448.69L128.368 442.848L134.21 440.719L136.339 446.561Z" fill="#F4A800"/>
<path d="M137.809 499.175L134.895 491.173L126.893 494.086L129.806 502.088L137.809 499.175ZM136.718 498.666L130.32 500.998L127.989 494.6L134.386 492.269L136.718 498.666Z" fill="#F4A800"/>
<path d="M81.3462 29.6998L80.8529 28.3496L79.5027 28.8429L79.9961 30.1931L81.3462 29.6998ZM81.1645 29.6115L80.0843 30.0061L79.6897 28.926L80.7698 28.5314L81.1645 29.6115Z" fill="#F4A800"/>
<path d="M81.7148 81.8036L81.0242 79.9082L79.1288 80.5989L79.8194 82.4943L81.7148 81.8036ZM81.4604 81.6842L79.9441 82.2346L79.3936 80.7183L80.91 80.1678L81.4604 81.6842Z" fill="#F4A800"/>
<path d="M82.084 133.905L81.196 131.47L78.7605 132.358L79.6485 134.793L82.084 133.905ZM81.7516 133.749L79.8043 134.461L79.0929 132.513L81.0402 131.802L81.7516 133.749Z" fill="#F4A800"/>
<path d="M82.4521 186.002L81.3669 183.026L78.3913 184.112L79.4766 187.087L82.4521 186.002ZM82.0471 185.815L79.6688 186.682L78.8016 184.304L81.1799 183.437L82.0471 185.815Z" fill="#F4A800"/>
<path d="M82.8213 238.107L81.5438 234.592L78.0283 235.869L79.3057 239.385L82.8213 238.107ZM82.3436 237.879L79.529 238.902L78.506 236.087L81.3205 235.064L82.3436 237.879Z" fill="#F4A800"/>
<path d="M83.1948 290.21L81.7201 286.154L77.6644 287.629L79.1392 291.685L83.1948 290.21ZM82.6392 289.95L79.3937 291.134L78.2097 287.889L81.4552 286.705L82.6392 289.95Z" fill="#F4A800"/>
<path d="M83.564 342.31L81.8919 337.709L77.291 339.381L78.9631 343.982L83.564 342.31ZM82.9356 342.014L79.2591 343.354L77.9193 339.677L81.5959 338.337L82.9356 342.014Z" fill="#F4A800"/>
<path d="M83.9326 394.408L82.0632 389.267L76.9222 391.136L78.7917 396.277L83.9326 394.408ZM83.2316 394.08L79.1188 395.576L77.6233 391.463L81.736 389.968L83.2316 394.08Z" fill="#F4A800"/>
<path d="M84.3013 446.51L82.2345 440.829L76.5535 442.896L78.6203 448.577L84.3013 446.51ZM83.5223 446.152L78.9786 447.808L77.322 443.265L81.8658 441.608L83.5223 446.152Z" fill="#F4A800"/>
<path d="M84.6699 498.606L82.4058 492.385L76.1848 494.649L78.4489 500.87L84.6699 498.606ZM83.8183 498.211L78.8435 500.023L77.0312 495.049L82.006 493.236L83.8183 498.211Z" fill="#F4A800"/>
<path d="M29.1528 29.5762L28.7997 28.6104L27.8338 28.9635L28.1869 29.9293L29.1528 29.5762ZM29.023 29.5191L28.2492 29.7995L27.9688 29.0258L28.7426 28.7454L29.023 29.5191Z" fill="#F4A800"/>
<path d="M29.4175 81.6285L28.9242 80.2783L27.574 80.7716L28.0673 82.1218L29.4175 81.6285ZM29.2357 81.5402L28.1556 81.9348L27.761 80.8547L28.8411 80.4601L29.2357 81.5402Z" fill="#F4A800"/>
<path d="M29.6826 133.683L29.0491 131.943L27.3095 132.577L27.943 134.317L29.6826 133.683ZM29.4438 133.569L28.052 134.072L27.5432 132.681L28.9348 132.177L29.4438 133.569Z" fill="#F4A800"/>
<path d="M29.9473 185.734L29.1735 183.61L27.0496 184.384L27.8234 186.508L29.9473 185.734ZM29.6565 185.599L27.9584 186.217L27.3404 184.519L29.0385 183.901L29.6565 185.599Z" fill="#F4A800"/>
<path d="M30.207 237.787L29.2931 235.273L26.7797 236.187L27.6937 238.701L30.207 237.787ZM29.8643 237.626L27.8547 238.358L27.1225 236.348L29.1321 235.616L29.8643 237.626Z" fill="#F4A800"/>
<path d="M30.4717 289.84L29.4175 286.942L26.5199 287.997L27.574 290.894L30.4717 289.84ZM30.077 289.653L27.761 290.494L26.9197 288.178L29.2358 287.337L30.077 289.653Z" fill="#F4A800"/>
<path d="M30.7363 341.889L29.542 338.602L26.2549 339.796L27.4492 343.083L30.7363 341.889ZM30.2897 341.681L27.6621 342.636L26.7067 340.009L29.3342 339.053L30.2897 341.681Z" fill="#F4A800"/>
<path d="M31.002 393.943L29.6674 390.271L25.996 391.606L27.3306 395.277L31.002 393.943ZM30.4982 393.709L27.5591 394.779L26.4893 391.84L29.4285 390.77L30.4982 393.709Z" fill="#F4A800"/>
<path d="M31.2661 445.992L29.7914 441.937L25.7357 443.411L27.2105 447.467L31.2661 445.992ZM30.7105 445.733L27.465 446.917L26.281 443.671L29.5265 442.487L30.7105 445.733Z" fill="#F4A800"/>
<path d="M31.5259 498.04L29.9057 493.595L25.4606 495.215L27.0808 499.66L31.5259 498.04ZM30.9235 497.759L27.3664 499.052L26.0734 495.495L29.6305 494.202L30.9235 497.759Z" fill="#F4A800"/>
<path d="M524.35 4.48505L523 0.777344L519.292 2.12749L520.642 5.8352L524.35 4.48505ZM523.841 4.25137L520.871 5.33149L519.791 2.36117L522.761 1.28105L523.841 4.25137Z" fill="#F4A800"/>
<path d="M525.612 57.0023L523.586 51.4355L518.02 53.4608L520.045 59.0275L525.612 57.0023ZM524.853 56.6492L520.403 58.2694L518.783 53.8191L523.233 52.1989L524.853 56.6492Z" fill="#F4A800"/>
<path d="M526.879 109.53L524.178 102.109L516.758 104.81L519.458 112.23L526.879 109.53ZM525.866 109.057L519.931 111.218L517.77 105.282L523.706 103.122L525.866 109.057Z" fill="#F4A800"/>
<path d="M528.146 162.039L524.771 152.765L515.496 156.14L518.872 165.414L528.146 162.039ZM526.879 161.452L519.458 164.153L516.758 156.732L524.179 154.032L526.879 161.452Z" fill="#F4A800"/>
<path d="M529.408 214.561L525.358 203.433L514.229 207.483L518.28 218.611L529.408 214.561ZM527.892 213.855L518.986 217.095L515.746 208.189L524.651 204.949L527.892 213.855Z" fill="#F4A800"/>
<path d="M530.675 267.079L525.95 254.097L512.962 258.822L517.688 271.804L530.675 267.079ZM528.904 266.253L518.519 270.034L514.738 259.648L525.124 255.867L528.904 266.253Z" fill="#F4A800"/>
<path d="M531.941 319.598L526.541 304.757L511.7 310.157L517.1 324.999L531.941 319.598ZM529.916 318.653L518.045 322.973L513.725 311.103L525.596 306.782L529.916 318.653Z" fill="#F4A800"/>
<path d="M533.204 372.119L527.128 355.424L510.433 361.499L516.509 378.195L533.204 372.119ZM530.929 371.054L517.573 375.915L512.713 362.559L526.069 357.698L530.929 371.054Z" fill="#F4A800"/>
<path d="M534.47 424.636L527.72 406.087L509.171 412.838L515.922 431.387L534.47 424.636ZM531.942 423.457L517.1 428.858L511.7 414.016L526.541 408.616L531.942 423.457Z" fill="#F4A800"/>
<path d="M535.733 477.157L528.307 456.754L507.905 464.18L515.33 484.582L535.733 477.157ZM532.95 475.858L516.629 481.799L510.688 465.473L527.009 459.532L532.95 475.858Z" fill="#F4A800"/>
<path d="M537 529.669L528.899 507.407L506.637 515.508L514.738 537.77L537 529.669ZM533.962 528.257L516.156 534.737L509.675 516.931L527.481 510.45L533.962 528.257Z" fill="#F4A800"/>
<path d="M472.208 4.38864L470.973 0.987305L467.571 2.22321L468.807 5.62454L472.208 4.38864ZM471.746 4.17573L469.025 5.16757L468.033 2.4465L470.754 1.45466L471.746 4.17573Z" fill="#F4A800"/>
<path d="M473.372 56.865L471.513 51.7656L466.413 53.6247L468.272 58.7241L473.372 56.865ZM472.676 56.5379L468.594 58.023L467.109 53.9414L471.191 52.4563L472.676 56.5379Z" fill="#F4A800"/>
<path d="M474.529 109.328L472.052 102.525L465.25 105.002L467.727 111.805L474.529 109.328ZM473.6 108.892L468.158 110.87L466.179 105.428L471.621 103.45L473.6 108.892Z" fill="#F4A800"/>
<path d="M475.687 161.798L472.592 153.297L464.091 156.392L467.186 164.893L475.687 161.798ZM474.529 161.258L467.726 163.735L465.249 156.932L472.052 154.455L474.529 161.258Z" fill="#F4A800"/>
<path d="M476.846 214.267L473.133 204.063L462.929 207.776L466.642 217.98L476.846 214.267ZM475.459 213.618L467.296 216.589L464.326 208.425L472.489 205.455L475.459 213.618Z" fill="#F4A800"/>
<path d="M478.009 266.735L473.678 254.833L461.776 259.164L466.107 271.066L478.009 266.735ZM476.383 265.977L466.86 269.441L463.396 259.917L472.92 256.453L476.383 265.977Z" fill="#F4A800"/>
<path d="M479.167 319.204L474.218 305.599L460.613 310.547L465.562 324.153L479.167 319.204ZM477.313 318.342L466.429 322.304L462.467 311.42L473.351 307.458L477.313 318.342Z" fill="#F4A800"/>
<path d="M480.325 371.673L474.753 356.369L459.45 361.941L465.022 377.244L480.325 371.673ZM478.238 370.701L465.993 375.157L461.537 362.912L473.782 358.457L478.238 370.701Z" fill="#F4A800"/>
<path d="M481.488 424.146L475.298 407.145L458.297 413.334L464.487 430.336L481.488 424.146ZM479.167 423.061L465.562 428.009L460.613 414.404L474.218 409.455L479.167 423.061Z" fill="#F4A800"/>
<path d="M482.646 476.617L475.838 457.912L457.133 464.72L463.941 483.425L482.646 476.617ZM480.096 475.428L465.13 480.875L459.683 465.909L474.649 460.462L480.096 475.428Z" fill="#F4A800"/>
<path d="M483.804 529.085L476.378 508.683L455.975 516.108L463.401 536.511L483.804 529.085ZM481.02 527.787L464.699 533.728L458.758 517.401L475.08 511.461L481.02 527.787Z" fill="#F4A800"/>
<path d="M420.072 4.29386L418.945 1.2041L415.856 2.33095L416.983 5.42071L420.072 4.29386ZM419.646 4.09653L417.175 4.9949L416.276 2.52309L418.748 1.62472L419.646 4.09653Z" fill="#F4A800"/>
<path d="M421.126 56.7095L419.439 52.0723L414.802 53.7599L416.489 58.3972L421.126 56.7095ZM420.493 56.4135L416.785 57.7637L415.435 54.0559L419.143 52.7058L420.493 56.4135Z" fill="#F4A800"/>
<path d="M422.181 109.13L419.932 102.945L413.747 105.194L415.996 111.379L422.181 109.13ZM421.334 108.735L416.385 110.537L414.583 105.588L419.532 103.787L421.334 108.735Z" fill="#F4A800"/>
<path d="M423.235 161.55L420.421 153.823L412.694 156.638L415.508 164.365L423.235 161.55ZM422.181 161.057L415.996 163.305L413.748 157.121L419.933 154.872L422.181 161.057Z" fill="#F4A800"/>
<path d="M424.288 213.969L420.913 204.694L411.638 208.07L415.014 217.344L424.288 213.969ZM423.021 213.382L415.6 216.082L412.9 208.662L420.321 205.961L423.021 213.382Z" fill="#F4A800"/>
<path d="M425.342 266.39L421.406 255.568L410.584 259.505L414.52 270.327L425.342 266.39ZM423.862 265.7L415.206 268.852L412.054 260.195L420.71 257.043L423.862 265.7Z" fill="#F4A800"/>
<path d="M426.397 318.814L421.895 306.45L409.531 310.952L414.033 323.317L426.397 318.814ZM424.709 318.025L414.817 321.624L411.218 311.731L421.111 308.133L424.709 318.025Z" fill="#F4A800"/>
<path d="M427.451 371.23L422.388 357.318L408.476 362.381L413.539 376.293L427.451 371.23ZM425.551 370.347L414.422 374.398L410.372 363.269L421.5 359.219L425.551 370.347Z" fill="#F4A800"/>
<path d="M428.505 423.653L422.881 408.193L407.422 413.817L413.046 429.276L428.505 423.653ZM426.397 422.671L414.033 427.173L409.531 414.809L421.895 410.307L426.397 422.671Z" fill="#F4A800"/>
<path d="M429.56 476.078L423.37 459.076L406.368 465.266L412.558 482.268L429.56 476.078ZM427.238 474.992L413.633 479.941L408.684 466.336L422.29 461.387L427.238 474.992Z" fill="#F4A800"/>
<path d="M430.613 528.493L423.863 509.944L405.314 516.695L412.064 535.244L430.613 528.493ZM428.084 527.314L413.243 532.715L407.843 517.874L422.684 512.473L428.084 527.314Z" fill="#F4A800"/>
<path d="M367.931 4.19256L366.918 1.40918L364.135 2.42179L365.147 5.20517L367.931 4.19256ZM367.552 4.016L365.324 4.82609L364.514 2.59835L366.741 1.78826L367.552 4.016Z" fill="#F4A800"/>
<path d="M368.88 56.5667L367.359 52.3916L363.184 53.9131L364.705 58.0882L368.88 56.5667ZM368.309 56.3018L364.97 57.517L363.755 54.178L367.094 52.9628L368.309 56.3018Z" fill="#F4A800"/>
<path d="M369.825 108.937L367.8 103.37L362.233 105.395L364.258 110.962L369.825 108.937ZM369.067 108.584L364.617 110.204L362.997 105.754L367.447 104.133L369.067 108.584Z" fill="#F4A800"/>
<path d="M370.777 161.304L368.243 154.346L361.284 156.88L363.818 163.838L370.777 161.304ZM369.827 160.863L364.26 162.888L362.235 157.321L367.801 155.296L369.827 160.863Z" fill="#F4A800"/>
<path d="M371.727 213.676L368.689 205.326L360.344 208.364L363.382 216.709L371.727 213.671V213.676ZM370.589 213.147L363.911 215.577L361.481 208.899L368.159 206.469L370.589 213.147Z" fill="#F4A800"/>
<path d="M372.677 266.047L369.13 256.311L359.393 259.857L362.94 269.594L372.677 266.047ZM371.347 265.424L363.558 268.259L360.723 260.47L368.512 257.635L371.347 265.424Z" fill="#F4A800"/>
<path d="M373.622 318.421L369.572 307.293L358.443 311.343L362.494 322.472L373.622 318.421ZM372.106 317.715L363.2 320.955L359.96 312.05L368.865 308.809L372.106 317.715Z" fill="#F4A800"/>
<path d="M374.572 370.791L370.013 358.271L357.493 362.831L362.052 375.351L374.572 370.791ZM372.864 369.997L362.847 373.642L359.201 363.625L369.218 359.98L372.864 369.997Z" fill="#F4A800"/>
<path d="M375.522 423.162L370.459 409.25L356.548 414.313L361.611 428.225L375.522 423.162ZM373.622 422.279L362.494 426.329L358.443 415.201L369.571 411.151L373.622 422.279Z" fill="#F4A800"/>
<path d="M376.467 475.53L370.895 460.227L355.592 465.799L361.164 481.102L376.467 475.53ZM374.38 474.559L362.135 479.014L357.679 466.77L369.924 462.314L374.38 474.559Z" fill="#F4A800"/>
<path d="M377.417 527.905L371.341 511.21L354.646 517.286L360.722 533.981L377.417 527.905ZM375.143 526.84L361.786 531.701L356.926 518.345L370.282 513.484L375.143 526.84Z" fill="#F4A800"/>
<path d="M315.789 4.0929L314.89 1.62109L312.418 2.51946L313.317 4.99127L315.789 4.0929ZM315.451 3.93192L313.473 4.65373L312.751 2.67525L314.729 1.95344L315.451 3.93192Z" fill="#F4A800"/>
<path d="M316.635 56.4128L315.285 52.7051L311.577 54.0552L312.927 57.7629L316.635 56.4128ZM316.126 56.1791L313.161 57.2592L312.081 54.2889L315.046 53.2088L316.126 56.1791Z" fill="#F4A800"/>
<path d="M317.476 108.738L315.674 103.789L310.725 105.591L312.527 110.54L317.476 108.738ZM316.801 108.426L312.844 109.865L311.406 105.908L315.363 104.469L316.801 108.426Z" fill="#F4A800"/>
<path d="M318.323 161.057L316.074 154.872L309.89 157.121L312.138 163.305L318.323 161.057ZM317.476 160.662L312.528 162.464L310.726 157.515L315.674 155.713L317.476 160.662Z" fill="#F4A800"/>
<path d="M319.165 213.385L316.464 205.965L309.044 208.665L311.744 216.086L319.165 213.385ZM318.152 212.913L312.216 215.073L310.056 209.138L315.992 206.977L318.152 212.913Z" fill="#F4A800"/>
<path d="M320.011 265.706L316.859 257.05L308.203 260.202L311.355 268.858L320.011 265.706ZM318.827 265.156L311.9 267.674L309.381 260.747L316.309 258.229L318.827 265.156Z" fill="#F4A800"/>
<path d="M320.852 318.026L317.253 308.134L307.361 311.732L310.96 321.625L320.852 318.026ZM319.502 317.398L311.588 320.28L308.706 312.366L316.62 309.484L319.502 317.398Z" fill="#F4A800"/>
<path d="M321.693 370.347L317.642 359.219L306.514 363.269L310.565 374.398L321.693 370.347ZM320.177 369.641L311.271 372.881L308.03 363.975L316.936 360.735L320.177 369.641Z" fill="#F4A800"/>
<path d="M322.54 422.673L318.037 410.309L305.673 414.811L310.175 427.175L322.54 422.673ZM320.852 421.883L310.959 425.482L307.361 415.59L317.253 411.991L320.852 421.883Z" fill="#F4A800"/>
<path d="M323.38 474.989L318.432 461.384L304.826 466.333L309.775 479.938L323.38 474.989ZM321.527 474.127L310.642 478.089L306.68 467.205L317.564 463.243L321.527 474.127Z" fill="#F4A800"/>
<path d="M324.227 527.315L318.826 512.474L303.985 517.874L309.386 532.715L324.227 527.315ZM322.202 526.37L310.331 530.69L306.01 518.819L317.881 514.499L322.202 526.37Z" fill="#F4A800"/>
<path d="M263.652 3.99941L262.863 1.83398L260.698 2.6233L261.487 4.78873L263.652 3.99941ZM263.356 3.8592L261.627 4.48754L260.999 2.75832L262.728 2.12998L263.356 3.8592Z" fill="#F4A800"/>
<path d="M264.39 56.27L263.206 53.0244L259.961 54.2084L261.145 57.4539L264.39 56.27ZM263.949 56.0622L261.352 57.0073L260.407 54.4109L263.004 53.4658L263.949 56.0622Z" fill="#F4A800"/>
<path d="M265.126 108.54L263.553 104.214L259.227 105.787L260.801 110.113L265.126 108.54ZM264.534 108.264L261.071 109.526L259.809 106.063L263.273 104.801L264.534 108.264Z" fill="#F4A800"/>
<path d="M265.865 160.816L263.897 155.405L258.486 157.373L260.454 162.784L265.865 160.816ZM265.127 160.468L260.802 162.042L259.228 157.711L263.554 156.137L265.127 160.468Z" fill="#F4A800"/>
<path d="M266.602 213.086L264.239 206.595L257.748 208.957L260.111 215.449L266.602 213.086ZM265.719 212.67L260.526 214.561L258.636 209.368L263.829 207.478L265.719 212.67Z" fill="#F4A800"/>
<path d="M267.339 265.361L264.581 257.784L257.005 260.542L259.762 268.118L267.339 265.361ZM266.305 264.878L260.245 267.085L258.038 261.025L264.098 258.818L266.305 264.878Z" fill="#F4A800"/>
<path d="M268.082 317.633L264.929 308.977L256.273 312.129L259.425 320.785L268.082 317.633ZM266.898 317.083L259.97 319.601L257.452 312.674L264.379 310.155L266.898 317.083Z" fill="#F4A800"/>
<path d="M268.819 369.904L265.273 360.167L255.536 363.714L259.083 373.45L268.819 369.904ZM267.49 369.28L259.701 372.116L256.865 364.326L264.655 361.491L267.49 369.28Z" fill="#F4A800"/>
<path d="M269.557 422.179L265.62 411.357L254.799 415.294L258.735 426.116L269.557 422.179ZM268.082 421.489L259.425 424.641L256.273 415.984L264.93 412.832L268.082 421.489Z" fill="#F4A800"/>
<path d="M270.294 474.45L265.963 462.548L254.061 466.879L258.392 478.781L270.294 474.45ZM268.669 473.692L259.145 477.155L255.681 467.632L265.205 464.168L268.669 473.692Z" fill="#F4A800"/>
<path d="M271.032 526.721L266.306 513.739L253.324 518.465L258.05 531.447L271.032 526.721ZM269.261 525.896L258.875 529.676L255.095 519.29L265.481 515.51L269.261 525.896Z" fill="#F4A800"/>
<path d="M211.511 3.8978L210.836 2.04395L208.982 2.71902L209.657 4.57287L211.511 3.8978ZM211.261 3.77836L209.776 4.31842L209.236 2.83326L210.721 2.2932L211.261 3.77836Z" fill="#F4A800"/>
<path d="M212.145 56.1232L211.132 53.3398L208.349 54.3525L209.361 57.1358L212.145 56.1232ZM211.765 55.9467L209.538 56.7568L208.728 54.529L210.955 53.7189L211.765 55.9467Z" fill="#F4A800"/>
<path d="M212.778 108.343L211.428 104.636L207.72 105.986L209.07 109.694L212.778 108.343ZM212.269 108.11L209.304 109.19L208.224 106.22L211.189 105.139L212.269 108.11Z" fill="#F4A800"/>
<path d="M213.411 160.567L211.723 155.93L207.086 157.617L208.774 162.255L213.411 160.567ZM212.778 160.271L209.07 161.621L207.72 157.913L211.427 156.563L212.778 160.271Z" fill="#F4A800"/>
<path d="M214.04 212.792L212.014 207.226L206.448 209.251L208.473 214.818L214.04 212.792ZM213.281 212.439L208.831 214.059L207.211 209.609L211.661 207.989L213.281 212.439Z" fill="#F4A800"/>
<path d="M214.673 265.016L212.311 258.525L205.819 260.888L208.182 267.379L214.673 265.016ZM213.791 264.601L208.598 266.491L206.707 261.298L211.9 259.408L213.791 264.601Z" fill="#F4A800"/>
<path d="M215.307 317.242L212.606 309.821L205.186 312.522L207.886 319.942L215.307 317.242ZM214.294 316.769L208.359 318.93L206.198 312.994L212.134 310.834L214.294 316.769Z" fill="#F4A800"/>
<path d="M215.94 369.46L212.902 361.11L204.552 364.148L207.59 372.498L215.94 369.46ZM214.803 368.931L208.125 371.361L205.694 364.683L212.372 362.253L214.803 368.931Z" fill="#F4A800"/>
<path d="M216.574 421.688L213.198 412.413L203.924 415.788L207.299 425.063L216.574 421.688ZM215.307 421.101L207.886 423.801L205.186 416.38L212.606 413.68L215.307 421.101Z" fill="#F4A800"/>
<path d="M217.203 473.912L213.49 463.708L203.286 467.421L206.999 477.625L217.203 473.912ZM215.811 473.263L207.648 476.233L204.677 468.07L212.841 465.1L215.811 473.263Z" fill="#F4A800"/>
<path d="M217.836 526.134L213.786 515.006L202.657 519.056L206.708 530.185L217.836 526.134ZM216.32 525.428L207.414 528.668L204.173 519.763L213.079 516.522L216.32 525.428Z" fill="#F4A800"/>
<path d="M159.375 3.7965L158.814 2.24902L157.266 2.80985L157.827 4.35733L159.375 3.7965ZM159.162 3.69783L157.926 4.14961L157.474 2.91371L158.71 2.46193L159.162 3.69783Z" fill="#F4A800"/>
<path d="M159.899 55.9732L159.058 53.6572L156.742 54.4985L157.583 56.8145L159.899 55.9732ZM159.582 55.8278L157.728 56.5029L157.053 54.6491L158.907 53.974L159.582 55.8278Z" fill="#F4A800"/>
<path d="M160.429 108.151L159.302 105.062L156.213 106.188L157.339 109.278L160.429 108.151ZM160.003 107.954L157.532 108.852L156.633 106.381L159.105 105.482L160.003 107.954Z" fill="#F4A800"/>
<path d="M160.954 160.322L159.546 156.459L155.683 157.866L157.09 161.73L160.954 160.322ZM160.429 160.078L157.339 161.205L156.213 158.116L159.302 156.989L160.429 160.078Z" fill="#F4A800"/>
<path d="M161.482 212.498L159.795 207.86L155.158 209.548L156.845 214.185L161.482 212.498ZM160.849 212.202L157.141 213.552L155.791 209.844L159.499 208.494L160.849 212.202Z" fill="#F4A800"/>
<path d="M162.007 264.675L160.039 259.264L154.628 261.232L156.596 266.643L162.007 264.675ZM161.269 264.327L156.944 265.9L155.37 261.575L159.696 260.001L161.269 264.327Z" fill="#F4A800"/>
<path d="M162.537 316.847L160.289 310.662L154.104 312.911L156.352 319.095L162.537 316.847ZM161.691 316.452L156.742 318.254L154.94 313.305L159.889 311.503L161.691 316.452Z" fill="#F4A800"/>
<path d="M163.061 369.021L160.527 362.062L153.568 364.597L156.103 371.555L163.061 369.021ZM162.111 368.58L156.544 370.605L154.519 365.038L160.085 363.013L162.111 368.58Z" fill="#F4A800"/>
<path d="M163.591 421.199L160.777 413.472L153.05 416.286L155.864 424.013L163.591 421.199ZM162.537 420.705L156.352 422.954L154.104 416.769L160.289 414.521L162.537 420.705Z" fill="#F4A800"/>
<path d="M164.116 473.373L161.021 464.872L152.52 467.967L155.615 476.468L164.116 473.373ZM162.958 472.833L156.155 475.31L153.678 468.507L160.481 466.03L162.958 472.833Z" fill="#F4A800"/>
<path d="M164.645 525.543L161.27 516.269L151.995 519.644L155.371 528.918L164.645 525.543ZM163.378 524.956L155.957 527.657L153.257 520.236L160.678 517.536L163.378 524.956Z" fill="#F4A800"/>
<path d="M107.233 3.70172L106.781 2.46582L105.545 2.9176L105.997 4.1535L107.233 3.70172ZM107.062 3.62383L106.075 3.98214L105.717 2.9903L106.703 2.63199L107.062 3.62383Z" fill="#F4A800"/>
<path d="M107.653 55.8265L106.978 53.9727L105.124 54.6477L105.799 56.5016L107.653 55.8265ZM107.404 55.7071L105.918 56.2471L105.378 54.762L106.864 54.2219L107.404 55.7071Z" fill="#F4A800"/>
<path d="M108.074 107.954L107.175 105.482L104.704 106.381L105.602 108.853L108.074 107.954ZM107.736 107.793L105.758 108.515L105.036 106.537L107.014 105.815L107.736 107.793Z" fill="#F4A800"/>
<path d="M108.5 160.08L107.373 156.99L104.283 158.117L105.41 161.207L108.5 160.08ZM108.074 159.883L105.602 160.781L104.704 158.309L107.175 157.411L108.074 159.883Z" fill="#F4A800"/>
<path d="M108.921 212.199L107.571 208.491L103.863 209.841L105.213 213.549L108.921 212.199ZM108.412 211.965L105.447 213.045L104.367 210.08L107.332 209L108.412 211.965Z" fill="#F4A800"/>
<path d="M109.341 264.328L107.767 260.002L103.442 261.575L105.015 265.901L109.341 264.328ZM108.749 264.052L105.285 265.314L104.023 261.851L107.487 260.589L108.749 264.052Z" fill="#F4A800"/>
<path d="M109.762 316.452L107.96 311.503L103.011 313.305L104.813 318.254L109.762 316.452ZM109.087 316.14L105.13 317.579L103.691 313.622L107.648 312.183L109.087 316.14Z" fill="#F4A800"/>
<path d="M110.182 368.578L108.157 363.011L102.59 365.036L104.615 370.603L110.182 368.578ZM109.424 368.224L104.974 369.845L103.353 365.394L107.804 363.774L109.424 368.224Z" fill="#F4A800"/>
<path d="M110.608 420.705L108.359 414.521L102.175 416.769L104.423 422.954L110.608 420.705ZM109.761 420.311L104.813 422.112L103.011 417.164L107.96 415.362L109.761 420.311Z" fill="#F4A800"/>
<path d="M111.029 472.831L108.552 466.028L101.749 468.505L104.226 475.308L111.029 472.831ZM110.099 472.395L104.657 474.373L102.679 468.931L108.121 466.953L110.099 472.395Z" fill="#F4A800"/>
<path d="M111.449 524.958L108.749 517.537L101.328 520.237L104.029 527.658L111.449 524.958ZM110.437 524.485L104.501 526.645L102.341 520.71L108.276 518.55L110.437 524.485Z" fill="#F4A800"/>
<path d="M55.0913 3.60335L54.7538 2.67383L53.8242 3.01136L54.1618 3.94089L55.0913 3.60335ZM54.9667 3.54623L54.2241 3.81626L53.9541 3.07368L54.6966 2.80365L54.9667 3.54623Z" fill="#F4A800"/>
<path d="M55.4077 55.6739L54.8988 54.2822L53.5071 54.7859L54.016 56.1776L55.4077 55.6739ZM55.2207 55.5856L54.1095 55.9907L53.7044 54.8794L54.8157 54.4744L55.2207 55.5856Z" fill="#F4A800"/>
<path d="M55.7251 107.753L55.05 105.899L53.1962 106.574L53.8712 108.428L55.7251 107.753ZM55.4758 107.634L53.9907 108.174L53.4506 106.689L54.9358 106.149L55.4758 107.634Z" fill="#F4A800"/>
<path d="M56.041 159.827L55.1998 157.506L52.8837 158.352L53.725 160.674L56.041 159.827ZM55.7243 159.682L53.8704 160.357L53.1953 158.503L55.0492 157.828L55.7243 159.682Z" fill="#F4A800"/>
<path d="M56.3584 211.907L55.3458 209.124L52.5624 210.137L53.575 212.92L56.3584 211.907ZM55.9793 211.731L53.7516 212.541L52.9415 210.313L55.1692 209.503L55.9793 211.731Z" fill="#F4A800"/>
<path d="M56.6748 263.986L55.4908 260.74L52.2453 261.924L53.4293 265.17L56.6748 263.986ZM56.2334 263.778L53.637 264.723L52.6918 262.127L55.2883 261.182L56.2334 263.778Z" fill="#F4A800"/>
<path d="M56.9922 316.058L55.642 312.351L51.9343 313.701L53.2845 317.408L56.9922 316.058ZM56.4833 315.825L53.5182 316.905L52.438 313.94L55.4032 312.859L56.4833 315.825Z" fill="#F4A800"/>
<path d="M57.3086 368.136L55.7871 363.961L51.612 365.482L53.1335 369.658L57.3086 368.136ZM56.7374 367.871L53.3983 369.086L52.1832 365.747L55.5222 364.532L56.7374 367.871Z" fill="#F4A800"/>
<path d="M57.625 420.214L55.9373 415.577L51.3001 417.265L52.9878 421.902L57.625 420.214ZM56.9915 419.918L53.2838 421.269L51.9336 417.561L55.6413 416.211L56.9915 419.918Z" fill="#F4A800"/>
<path d="M57.9424 472.29L56.0834 467.19L50.984 469.049L52.843 474.149L57.9424 472.29ZM57.2466 471.963L53.165 473.448L51.6798 469.366L55.7614 467.881L57.2466 471.963Z" fill="#F4A800"/>
<path d="M58.2534 524.364L56.2282 518.797L50.6614 520.822L52.6866 526.389L58.2534 524.364ZM57.4952 524.011L53.045 525.631L51.4248 521.18L55.8751 519.56L57.4952 524.011Z" fill="#F4A800"/>
<path d="M2.95459 3.50369L2.73133 2.88574L2.11335 3.10904L2.33667 3.72699L2.95459 3.50369ZM2.87155 3.46215L2.37819 3.6439L2.19645 3.15058L2.68975 2.96883L2.87155 3.46215Z" fill="#F4A800"/>
<path d="M3.1626 55.534L2.82505 54.6045L1.89557 54.942L2.23305 55.8716L3.1626 55.534ZM3.03797 55.4769L2.29543 55.7469L2.02539 55.0043L2.76793 54.7343L3.03797 55.4769Z" fill="#F4A800"/>
<path d="M3.375 107.557L2.92322 106.321L1.68732 106.773L2.13909 108.009L3.375 107.557ZM3.20366 107.479L2.217 107.838L1.85866 106.846L2.84532 106.487L3.20366 107.479Z" fill="#F4A800"/>
<path d="M3.58838 159.587L3.02751 158.039L1.48004 158.6L2.04085 160.147L3.58838 159.587ZM3.37545 159.488L2.13955 159.94L1.68777 158.704L2.92368 158.252L3.37545 159.488Z" fill="#F4A800"/>
<path d="M3.7959 211.615L3.12086 209.761L1.26697 210.436L1.94207 212.29L3.7959 211.615ZM3.54665 211.495L2.0615 212.035L1.52142 210.55L3.00664 210.01L3.54665 211.495Z" fill="#F4A800"/>
<path d="M4.00879 263.639L3.21946 261.474L1.05408 262.263L1.84334 264.428L4.00879 263.639ZM3.71282 263.499L1.98356 264.127L1.35524 262.398L3.08444 261.77L3.71282 263.499Z" fill="#F4A800"/>
<path d="M4.2168 315.668L3.31844 313.196L0.846629 314.095L1.74499 316.566L4.2168 315.668ZM3.87925 315.507L1.9008 316.229L1.17898 314.25L3.15743 313.529L3.87925 315.507Z" fill="#F4A800"/>
<path d="M4.4292 367.692L3.41655 364.908L0.63318 365.921L1.64583 368.704L4.4292 367.692ZM4.05007 367.515L1.82237 368.325L1.01225 366.097L3.24001 365.287L4.05007 367.515Z" fill="#F4A800"/>
<path d="M4.64209 419.723L3.51528 416.633L0.42548 417.76L1.55236 420.849L4.64209 419.723ZM4.2163 419.525L1.74449 420.424L0.846134 417.952L3.31795 417.053L4.2163 419.525Z" fill="#F4A800"/>
<path d="M4.8501 471.751L3.61419 468.35L0.212899 469.586L1.4488 472.987L4.8501 471.751ZM4.38792 471.533L1.66686 472.525L0.675008 469.804L3.39613 468.812L4.38792 471.533Z" fill="#F4A800"/>
<path d="M5.06299 523.775L3.71285 520.067L0.00513649 521.418L1.35527 525.125L5.06299 523.775ZM4.5541 523.541L1.58892 524.622L0.50883 521.656L3.47394 520.576L4.5541 523.541Z" fill="#F4A800"/>
</g>
<defs>
<clipPath id="clip0_1300_4982">
<rect width="536.995" height="536.992" fill="white" transform="matrix(-1 0 0 1 537 0.777344)"/>
</clipPath>
</defs>
</svg>
