<svg width="313" height="61" viewBox="0 0 313 61" fill="none" xmlns="http://www.w3.org/2000/svg">
<g clip-path="url(#clip0_110_471)">
<path d="M66.5202 6.64036C66.2009 5.80509 65.513 5.14178 64.6286 4.89611C63.4248 4.52761 35.05 -3.72688 18.1725 2.63595C12.9644 4.60131 8.86166 8.45831 6.55236 13.5191C4.26764 18.5799 4.07113 24.2303 6.03648 29.4139C10.3357 40.6901 22.8403 45.4807 32.839 41.55C39.0053 39.1178 44.8031 34.5975 49.9131 29.5367C50.085 29.3648 50.085 29.07 49.9131 28.9226C48.5619 27.7434 46.965 26.8589 45.2453 26.3676C45.0979 26.3185 44.9505 26.3676 44.8277 26.4659C40.4548 30.6668 35.6151 34.3519 30.8 36.1698C23.4053 38.9704 14.4138 35.5556 11.4166 27.3994C8.56688 19.6117 12.4239 10.9396 20.1871 8.01611C31.8809 3.61863 51.0185 7.4265 59.1502 9.41643C57.7007 11.48 55.6371 14.3052 53.1067 17.4007C52.9348 17.5972 53.0084 17.9166 53.2295 18.0394C54.6298 18.8256 55.9565 19.7837 57.1848 20.8646C57.3568 21.0366 57.6516 21.012 57.799 20.8155C62.737 14.7474 65.9552 9.68666 66.25 9.21989C66.7414 8.45831 66.8396 7.52477 66.5202 6.66493" fill="#F99B25"/>
<path d="M0.951154 53.7597C1.27052 54.595 1.95845 55.2583 2.84286 55.5039C4.04663 55.8724 32.4214 64.1269 49.2989 57.7641C54.4826 55.7987 58.6097 51.9417 60.919 46.8809C63.2038 41.8202 63.4003 36.1698 61.4349 30.9861C57.1357 19.7099 44.6312 14.9194 34.6325 18.8501C28.4662 21.2822 22.6683 25.8025 17.5584 30.8879C17.3865 31.0598 17.3865 31.3546 17.5584 31.5021C18.9096 32.6813 20.5064 33.5657 22.2261 34.057C22.3735 34.1061 22.521 34.057 22.6438 33.9587C27.0167 29.7578 31.8564 26.0728 36.6715 24.2548C44.0661 21.4542 53.0577 24.869 56.0548 33.0252C58.9046 40.8129 55.0476 49.485 47.2844 52.4085C35.5906 56.806 16.4529 52.9981 8.32123 51.0082C9.77068 48.9691 11.8344 46.1194 14.3648 43.0239C14.5367 42.8274 14.463 42.5326 14.2419 42.3852C12.8416 41.5991 11.515 40.6409 10.2866 39.56C10.1147 39.388 9.81986 39.4126 9.67246 39.6091C4.73451 45.6772 1.51623 50.738 1.22143 51.2047C0.73009 51.9663 0.631784 52.8998 0.951154 53.7597Z" fill="#F99B25"/>
<path d="M103.174 39.0441C103.739 34.3027 101.847 33.148 96.1971 32.411C85.9035 31.0844 82.1939 28.2838 83.1028 20.4715C83.9136 14.1824 88.1882 8.06519 99.8575 8.06519C104.378 8.06519 107.35 8.63023 109.34 9.3181C110.888 9.83401 111.183 10.6201 110.986 11.7748L110.692 14.1824C110.52 15.3861 109.537 16.1723 108.186 15.6809C105.778 14.8211 103.837 14.1332 99.4398 14.1332C92.7576 14.1332 90.129 16.8847 89.6623 20.5452C89.0972 25.1883 91.6768 25.9745 97.2043 26.7115C105.95 27.9153 110.937 29.9052 109.832 38.651C108.849 46.7827 103.371 52.3102 91.8733 52.3102C87.3529 52.3102 83.3485 51.4013 81.2849 50.7134C79.7863 50.1975 79.5161 49.4113 79.6881 48.2567L79.9829 45.8491C80.1057 44.6453 81.1129 43.8592 82.4887 44.3505C84.8962 45.2104 87.7952 46.2422 92.2172 46.2422C99.9312 46.2422 102.634 43.0976 103.149 39.0441" fill="#F99B25"/>
<path d="M127.864 27.7923C122.263 27.7923 120.887 32.0178 120.199 37.3243C119.561 42.6553 119.905 46.8808 125.53 46.8808C128.552 46.8808 130.689 45.849 131.869 45.2348L133.809 29.4629C132.728 28.8241 130.886 27.8169 127.864 27.8169M137.74 49.7552C137.568 50.9589 136.88 51.6468 135.676 51.6468H135.038C133.834 51.6468 133.49 51.2046 133.146 50.0008L132.925 49.3621C130.173 51.2046 127.152 52.3347 123.319 52.3347C114.967 52.3347 112.559 46.7334 113.714 37.3489C114.868 27.9643 118.627 22.363 126.98 22.363C130.812 22.363 133.613 23.5177 135.898 25.3356L136.242 24.6969C136.929 23.4931 137.322 23.0263 138.526 23.0263H139.165C140.369 23.0263 140.885 23.7142 140.762 24.918L137.74 49.7306V49.7552Z" fill="#F99B25"/>
<path d="M156.042 17.9657L155.403 23.051H161.3C162.724 23.051 163.363 23.8372 163.191 25.3357L163.068 26.1956C162.896 27.6942 162.037 28.4803 160.612 28.4803H154.716L152.185 49.3376C152.013 50.8362 151.153 51.6224 149.729 51.6224H147.665C146.24 51.6224 145.601 50.8362 145.773 49.3376L148.304 28.4803H144.987C143.783 28.4803 143.218 27.8416 143.317 26.6378L143.366 26.0727C143.538 24.869 144.004 24.3531 145.307 24.0091L148.967 23.0264L149.655 17.3761C150.392 11.2589 154.224 8.06519 161.889 8.06519C162.921 8.06519 164.051 8.11432 164.911 8.35999C166.115 8.65479 166.385 9.3918 166.287 10.4727L165.992 12.6346C165.869 13.6173 165.009 14.2315 163.83 13.8875C163.142 13.7156 162.356 13.5927 161.668 13.5927C158.818 13.5927 156.411 14.6737 156.018 17.9411" fill="#F99B25"/>
<path d="M175.966 35.2117C179.332 35.2117 181.567 34.1307 181.911 31.5512C182.206 28.9717 180.191 27.8907 176.826 27.8907C172.133 27.8907 170.487 30.9125 169.726 35.2117H175.966ZM162.97 37.3244C164.1 28.1119 168.178 22.3386 177.612 22.3386C186.014 22.3386 188.765 26.2939 188.127 31.2073C187.561 36.1207 183.901 39.6583 175.499 39.6583H169.161C168.768 43.9575 169.972 46.7581 175.794 46.7581C179.233 46.7581 182.132 45.8983 183.287 45.5544C184.54 45.1613 185.301 45.8983 185.179 46.881L184.884 48.9937C184.761 50.0747 184.245 50.7134 183.066 51.1065C181.395 51.6224 177.808 52.3103 174.148 52.3103C164.591 52.3103 161.865 46.5862 162.995 37.3244" fill="#F99B25"/>
<path d="M209.918 14.6247H201.737L200.239 26.6379H208.64C213.8 26.6379 215.396 23.4933 215.74 20.7418C216.084 17.8921 215.519 14.6247 209.918 14.6247ZM197.929 45.751H206.503C212.498 45.751 214.389 42.4344 214.856 38.8968C215.372 34.4993 213.652 32.0918 208.223 32.0918H199.6L197.929 45.751ZM195.743 11.3327C195.964 9.66215 196.898 8.75317 198.544 8.75317H210.483C220.949 8.75317 223.405 13.8385 222.594 20.4716C222.128 24.1321 219.843 27.4486 216.428 28.9963C220.433 30.2001 222.251 34.1308 221.686 39.0688C220.826 46.1686 216.649 51.647 205.57 51.647H193.286C191.64 51.647 190.879 50.7381 191.124 49.0675L195.743 11.3327Z" fill="#F99B25"/>
<path d="M244.656 37.3244C245.393 31.2073 245.049 27.7188 239.62 27.7188C234.19 27.7188 232.937 31.2073 232.176 37.3244C231.439 43.4416 231.832 46.9301 237.261 46.9301C242.69 46.9301 243.894 43.4416 244.631 37.3244M225.739 37.3244C226.82 28.5295 230.088 22.3386 240.258 22.3386C250.429 22.3386 252.198 28.5295 251.117 37.3244C250.036 46.1194 246.769 52.3103 236.598 52.3103C226.427 52.3103 224.658 46.144 225.739 37.3244Z" fill="#F99B25"/>
<path d="M261.508 37.3487C260.894 42.6798 261.213 46.9053 266.814 46.9053C269.836 46.9053 271.949 45.8735 273.177 45.2593L275.118 29.4873C274.037 28.8486 272.194 27.8168 269.173 27.8168C263.571 27.8168 262.146 32.116 261.508 37.3733M274.258 49.3374C271.506 51.1799 268.485 52.31 264.652 52.31C256.3 52.31 253.892 46.7087 255.047 37.3242C256.201 28.0133 259.96 22.3384 268.313 22.3384C271.187 22.3384 273.816 23.2473 275.757 24.5739L277.403 11.013C277.575 9.53898 278.434 8.72827 279.859 8.72827H281.923C283.348 8.72827 283.987 9.53898 283.815 11.013L279.073 49.7305C278.901 50.9343 278.213 51.6221 277.009 51.6221H276.395C275.192 51.6221 274.848 51.1799 274.504 49.9516L274.283 49.3128L274.258 49.3374Z" fill="#F99B25"/>
<path d="M299.661 27.7923C294.06 27.7923 292.684 32.0178 291.996 37.3243C291.357 42.6553 291.701 46.8808 297.303 46.8808C300.324 46.8808 302.462 45.849 303.641 45.2348L305.582 29.4629C304.501 28.8241 302.658 27.8169 299.636 27.8169M309.561 49.7552C309.389 50.9589 308.702 51.6468 307.498 51.6468H306.859C305.655 51.6468 305.311 51.2046 304.967 50.0008L304.746 49.3621C301.995 51.2046 298.973 52.3347 295.141 52.3347C286.788 52.3347 284.38 46.7334 285.535 37.3489C286.69 27.9643 290.448 22.363 298.801 22.363C302.634 22.363 305.434 23.5177 307.719 25.3356L308.063 24.6969C308.751 23.4931 309.144 23.0263 310.348 23.0263H310.986C312.19 23.0263 312.706 23.7142 312.583 24.918L309.561 49.7306V49.7552Z" fill="#F99B25"/>
</g>
<defs>
<clipPath id="clip0_110_471">
<rect width="311.834" height="59.9304" fill="white" transform="translate(0.766602 0.234863)"/>
</clipPath>
</defs>
</svg>
